<?xml version="1.0" encoding="UTF-8" standalone="no"?>
<svg width="67px" height="81px" viewBox="0 0 67 81" version="1.1" xmlns="http://www.w3.org/2000/svg" xmlns:xlink="http://www.w3.org/1999/xlink" xmlns:sketch="http://www.bohemiancoding.com/sketch/ns">
    <!-- Generator: Sketch 3.3.2 (12043) - http://www.bohemiancoding.com/sketch -->
    <title>frog</title>
    <desc>Created with Sketch.</desc>
    <defs></defs>
    <g id="Page-1" stroke="none" stroke-width="1" fill="none" fill-rule="evenodd" sketch:type="MSPage">
        <g id="Group" sketch:type="MSLayerGroup" transform="translate(-496.000000, -562.000000)">
            <g id="frog" transform="translate(496.000000, 562.000000)" sketch:type="MSShapeGroup">
                <ellipse id="Oval-38" fill="#52D2C3" cx="33.2765957" cy="26.7589286" rx="23.1489362" ry="15.1875"></ellipse>
                <path d="M33.2765957,69.4285714 C64.4105303,69.4285714 58.3089237,62.0890765 56.4255319,54.2410714 C54.4339803,45.9423695 46.0614002,39.0535714 33.2765957,39.0535714 C20.4917913,39.0535714 10.5995678,45.2143119 8.99663398,54.2410714 C7.39370017,63.267831 2.60821144,69.4285714 33.2765957,69.4285714 Z" id="Oval-38-Copy" fill="#52D2C3"></path>
                <ellipse id="Oval-39" fill="#52D2C3" cx="22.4255319" cy="9.40178571" rx="9.40425532" ry="9.40178571"></ellipse>
                <ellipse id="Oval-39-Copy" fill="#52D2C3" cx="42.6808511" cy="9.40178571" rx="9.40425532" ry="9.40178571"></ellipse>
                <ellipse id="Oval-39-Copy-2" fill="#FFFFFF" cx="42.6808511" cy="9.40178571" rx="6.5106383" ry="6.50892857"></ellipse>
                <ellipse id="Oval-39-Copy-4" fill="#000000" cx="39.787234" cy="9.40178571" rx="2.17021277" ry="2.16964286"></ellipse>
                <ellipse id="Oval-39-Copy-3" fill="#FFFFFF" cx="22.4255319" cy="9.40178571" rx="6.5106383" ry="6.50892857"></ellipse>
                <path d="M19.5319149,11.5714286 C20.7304903,11.5714286 21.7021277,10.6000464 21.7021277,9.40178571 C21.7021277,8.20352505 20.7304903,7.23214286 19.5319149,7.23214286 C18.3333395,7.23214286 17.3617021,8.20352505 17.3617021,9.40178571 C17.3617021,10.6000464 18.3333395,11.5714286 19.5319149,11.5714286 Z" id="Oval-39-Copy-5" fill="#000000"></path>
                <path d="M19.3037317,23.7318813 C19.3037317,23.7318813 23.4195063,30.9498989 33.7583943,30.9498989 C44.0972822,30.9498989 47.8054355,23.9833112 47.8054355,23.9833112" id="Path-32" stroke="#000000" stroke-linecap="round"></path>
                <path d="M13.6298224,50.1051898 C13.6298224,50.1051898 9.69601928,44.270037 4.62753674,47.7405096 C-0.440945806,51.2109823 5.49929538,63.983168 5.49929538,63.983168 C5.49929538,63.983168 -0.620676378,64.6039738 0.565452298,66.3555086 C1.75158097,68.1070434 6.85185373,70.9646958 8.89419914,70.9646958 C10.9365446,70.9646958 12.8220582,66.3555083 12.8220582,66.3555083 L13.6298224,50.1051898 Z" id="Path-33" fill="#52D2C3"></path>
                <path d="M66.7488394,50.1051898 C66.7488394,50.1051898 62.8150362,44.270037 57.7465537,47.7405096 C52.6780711,51.2109823 58.6183123,63.983168 58.6183123,63.983168 C58.6183123,63.983168 52.4983405,64.6039738 53.6844692,66.3555086 C54.8705979,68.1070434 59.9708706,70.9646958 62.0132161,70.9646958 C64.0555615,70.9646958 65.9410751,66.3555083 65.9410751,66.3555083 L66.7488394,50.1051898 Z" id="Path-33-Copy" fill="#52D2C3" transform="translate(60.140377, 58.801577) scale(-1, 1) translate(-60.140377, -58.801577) "></path>
                <path d="M23.6144864,54.5023891 L22.5385638,72.4810442 L18.3585023,78.6304844 C18.3585023,78.6304844 21.9712849,80.9004168 25.9231632,80.9004168 C29.8750416,80.9004168 31.0689412,79.8473772 31.0689412,79.8473772 L27.3685588,71.7655988 L27.6200549,53.3010341 L23.6144864,54.5023891 Z" id="Path-35" fill="#52D2C3"></path>
                <path d="M38.0825715,54.5023891 L37.0066489,72.4810442 L32.8265874,78.6304844 C32.8265874,78.6304844 36.43937,80.9004168 40.3912483,80.9004168 C44.3431267,80.9004168 45.5370263,79.8473772 45.5370263,79.8473772 L41.8366439,71.7655988 L42.08814,53.3010341 L38.0825715,54.5023891 Z" id="Path-35-Copy" fill="#52D2C3"></path>
            </g>
        </g>
    </g>
</svg>