<?xml version="1.0" encoding="UTF-8" standalone="no"?>
<svg width="72px" height="108px" viewBox="0 0 72 108" version="1.1" xmlns="http://www.w3.org/2000/svg" xmlns:xlink="http://www.w3.org/1999/xlink" xmlns:sketch="http://www.bohemiancoding.com/sketch/ns">
    <!-- Generator: Sketch 3.3.2 (12043) - http://www.bohemiancoding.com/sketch -->
    <title>skunk</title>
    <desc>Created with Sketch.</desc>
    <defs></defs>
    <g id="Page-1" stroke="none" stroke-width="1" fill="none" fill-rule="evenodd" sketch:type="MSPage">
        <g id="Group" sketch:type="MSLayerGroup" transform="translate(-764.000000, -529.000000)">
            <g id="skunk" transform="translate(764.000000, 529.000000)" sketch:type="MSShapeGroup">
                <path d="M55.2128706,90.4070128 C55.2128706,90.4070128 57.6945294,92.0459692 57.6945294,94.6247151 C57.6945294,97.203461 57.5974422,100.958777 55.1779472,101.735474 C52.7584522,102.512171 52.1210996,103.692583 54.0321095,104.186051 C55.9431195,104.679519 58.0870685,104.0268 59.45013,102.597734 C60.8131916,101.168667 62.227241,92.7144036 62.227241,92.7144036 L55.2128706,90.4070128 Z" id="Path-39" fill="#389086" transform="translate(57.570153, 97.378150) scale(-1, 1) translate(-57.570153, -97.378150) "></path>
                <path d="M24.4655165,90.4070128 C24.4655165,90.4070128 26.9471752,92.0459692 26.9471752,94.6247151 C26.9471752,97.203461 26.8500881,100.958777 24.430593,101.735474 C22.011098,102.512171 21.3737455,103.692583 23.2847554,104.186051 C25.1957653,104.679519 27.3397144,104.0268 28.7027759,102.597734 C30.0658374,101.168667 31.4798868,92.7144036 31.4798868,92.7144036 L24.4655165,90.4070128 Z" id="Path-39-Copy" fill="#389086" transform="translate(26.822799, 97.378150) scale(-1, 1) translate(-26.822799, -97.378150) "></path>
                <path d="M15.2325172,107.066497 C14.6884102,107.707691 18.3854042,108.170077 19.7177329,107.618287 C21.0500617,107.066497 26.3486453,96.5053687 26.3486453,96.5053687 C26.3486453,96.5053687 28.5953923,93.5604943 36.6695645,92.0916805 C44.7437366,90.6228666 50.519148,97.6308851 50.519148,99.984375 C50.5191479,102.337865 50.2785256,102.932261 49.0122021,103.452621 C47.7458785,103.97298 45.8034377,104.291481 46.600041,105.394712 C47.3966443,106.497944 50.0564126,106.560107 51.8703354,105.355947 C53.6842581,104.151788 55.0515104,102.695131 55.0515103,100.023489 C55.0515103,97.3518472 53.0664628,96.7689749 53.5948542,92.7922444 C54.1232456,88.8155139 55.3972509,91.5503019 57.4748469,82.143393 C59.5524429,72.7364841 57.4748483,65.8149446 57.4748483,64.3582885 C57.4748482,62.9016323 72.9743291,58.3189802 70.9395743,44.9310844 C68.9048195,31.5431886 49.0121993,35.7253345 50.5191452,21.8691156 C52.0260911,8.01289661 59.5524416,0 59.5524416,0 C59.5524416,0 52.9466727,0.028352793 45.3347625,4.71961676 C37.7228522,9.41088073 19.4831348,24.7670622 29.7344703,38.1678135 C39.9858058,51.5685648 50.1891188,50.431175 53.8319815,55.5306938 C57.4748442,60.6302126 53.8319843,61.3098225 53.8319843,61.3098225 C53.8319843,61.3098225 43.2959356,58.8281658 37.0589607,60.6302126 C30.8219857,62.4322595 21.8120908,64.3582885 21.8120908,64.3582885 C21.8120908,64.3582885 25.2300467,59.895775 26.348644,58.3189802 C27.4672413,56.7421855 27.582602,54.0429524 24.9521694,54.0429558 C22.3217368,54.0429592 21.5788023,54.8818186 19.0353291,54.0429558 C16.491856,53.2040931 15.0044672,52.3345038 12.9925285,52.7692984 C10.9805898,53.2040931 8.68542227,54.4120964 8.68542227,54.4120964 L8.31628165,51.8333506 C8.31628165,51.8333506 6.94937871,52.1480127 5.27549885,55.5306938 C3.60161898,58.9133749 -0.784987538,67.4971406 0.122197936,74.178407 C1.02938341,80.8596733 5.32845758,88.0790462 10.2645348,90.6228666 C15.200612,93.166687 18.2405592,97.1472633 19.4831347,98.9416269 C20.7257103,100.735991 20.1320379,102.858988 19.4831348,104.269218 C18.8342316,105.679447 15.7766242,106.425303 15.2325172,107.066497 Z" id="Path-38" fill="#52D2C3" transform="translate(35.561857, 53.931981) scale(-1, 1) translate(-35.561857, -53.931981) "></path>
                <circle id="Oval-36-Copy-3" fill="#FFFFFF" cx="56.180948" cy="54.7956206" r="4.64900662"></circle>
                <circle id="Oval-36-Copy-2" fill="#000000" cx="53.6776368" cy="55.1532365" r="1.43046358"></circle>
                <path d="M23.829072,27.9604592 C25.4991102,35.3167298 39.2798951,42.8818426 39.2798951,42.8818426 C39.2798951,42.8818426 30.2773334,32.5989887 30.2773334,25.9265188 C30.2773334,19.2540488 35.060446,11.7036038 35.060446,11.7036038 C35.060446,11.7036038 22.1590337,20.6041885 23.829072,27.9604592 Z" id="Path-41" fill="#FFFFFF" transform="translate(31.479887, 27.292723) scale(-1, 1) translate(-31.479887, -27.292723) "></path>
                <circle id="Oval-47" fill="#389086" cx="43.6643917" cy="53.7227729" r="2.14569536"></circle>
            </g>
        </g>
    </g>
</svg>