<?xml version="1.0" encoding="UTF-8" standalone="no"?>
<svg width="156px" height="75px" viewBox="0 0 156 75" version="1.1" xmlns="http://www.w3.org/2000/svg" xmlns:xlink="http://www.w3.org/1999/xlink" xmlns:sketch="http://www.bohemiancoding.com/sketch/ns">
    <!-- Generator: Sketch 3.3.2 (12043) - http://www.bohemiancoding.com/sketch -->
    <title>happy-turtle copy</title>
    <desc>Created with Sketch.</desc>
    <defs></defs>
    <g id="Page-1" stroke="none" stroke-width="1" fill="none" fill-rule="evenodd" sketch:type="MSPage">
        <g id="Group" sketch:type="MSLayerGroup" transform="translate(-262.000000, -562.000000)">
            <g id="happy-turtle-copy" transform="translate(262.000000, 562.000000)">
                <g id="Shape_18_1_" transform="translate(83.102804, 43.689320)" fill="#389086" sketch:type="MSShapeGroup">
                    <g id="Shape_18">
                        <path d="M9.8411215,1.67475728 L0,0.218446602 L2.91588785,21.0436893 C2.91588785,21.0436893 11.517757,21.4805825 14.9439252,20.6067961 C18.3700935,19.7330097 20.2654206,17.6213592 20.2654206,17.6213592 L9.8411215,1.67475728 L9.8411215,1.67475728 Z" id="Shape"></path>
                    </g>
                </g>
                <g id="Shape_18_copy_1_" transform="translate(26.971963, 48.786408)" fill="#389086" sketch:type="MSShapeGroup">
                    <g id="Shape_18_copy">
                        <path d="M13.5588785,5.09708738 L4.95700935,0.145631068 L0.218691589,20.6067961 C0.218691589,20.6067961 8.09158879,24.1747573 11.5906542,24.6116505 C15.0897196,25.0485437 17.6411215,23.8106796 17.6411215,23.8106796 L13.5588785,5.09708738 L13.5588785,5.09708738 Z" id="Shape"></path>
                    </g>
                </g>
                <g id="Shape_3_1_" fill="#52D2C3" sketch:type="MSShapeGroup">
                    <g id="Shape_3">
                        <path d="M155.854206,19.2961165 C154.542056,2.69417476 138.213084,-2.33009709 126.039252,2.11165049 C115.979439,5.82524272 110.51215,28.1067961 107.013084,35.3883495 C103.514019,42.6699029 96.0785047,41.2135922 96.0785047,41.2135922 C96.0785047,41.2135922 83.7588785,32.184466 70.7831776,28.6893204 C57.8074766,25.1941748 33.0224299,32.2572816 25.5140187,36.407767 C18.0785047,40.5582524 9.11214953,50.0970874 9.11214953,50.0970874 C9.11214953,50.0970874 8.67476636,51.1165049 5.10280374,50.5339806 C2.62429907,50.0970874 0.801869159,47.7669903 0.801869159,47.7669903 C0.801869159,47.7669903 -1.53084112,51.407767 2.25981308,54.0291262 C8.67476636,58.3980583 14.2878505,52.7912621 14.2878505,52.7912621 L10.2056075,68.4466019 C10.2056075,68.4466019 15.964486,73.7621359 21.7233645,74.3446602 C26.8261682,74.8543689 30.835514,73.1796117 30.9084112,73.5436893 L32.7308411,51.6990291 C32.7308411,51.6990291 41.7700935,58.2524272 53.4336449,56.7961165 C66.0448598,55.2669903 73.6261682,48.3495146 73.6261682,48.3495146 L73.4803738,70.8495146 C73.4803738,70.8495146 79.6766355,73.3980583 86.528972,71.9417476 C94.8392523,70.1941748 95.9327103,67.4271845 95.7140187,66.9902913 C94.5476636,64.1504854 87.0392523,45.4368932 87.0392523,45.4368932 C87.7682243,46.0194175 108.325234,53.9563107 119.842991,37.7184466 C123.196262,33.0582524 123.414953,31.0194175 123.269159,30.2912621 C123.196262,30.0728155 123.123364,29.9271845 123.123364,29.9271845 C123.123364,29.9271845 123.196262,30 123.269159,30.2912621 C123.560748,31.1650485 124.581308,33.4951456 126.768224,35.7524272 C134.714019,43.6893204 157.239252,37.1359223 155.854206,19.2961165 L155.854206,19.2961165 Z" id="Shape"></path>
                    </g>
                </g>
                <g id="Shape_1_1_" transform="translate(9.476636, 3.640777)" fill="#DECBAC" sketch:type="MSShapeGroup">
                    <g id="Shape_1">
                        <path d="M41.0411215,0.509708738 C-8.60186916,5.53398058 0.874766355,42.3058252 0.874766355,42.3058252 C0.874766355,42.3058252 20.1925234,30.8737864 43.082243,28.3980583 C65.8990654,25.9223301 86.528972,34.368932 86.528972,34.368932 C86.528972,34.368932 91.1943925,-4.58737864 41.0411215,0.509708738 L41.0411215,0.509708738 Z" id="Shape"></path>
                    </g>
                </g>
                <g id="Shape_2_1_" transform="translate(9.476636, 28.398058)" fill="#FFF1DB" sketch:type="MSShapeGroup">
                    <g id="Shape_2">
                        <path d="M86.528972,9.61165049 C86.528972,9.61165049 65.3158879,-2.69417476 40.4579439,0.873786408 C19.1719626,3.8592233 0.728971963,17.1116505 0.728971963,17.1116505 L0.291588785,21.1165049 C0.291588785,21.1165049 18.1514019,9.10194175 41.6971963,6.33495146 C59.3383178,3.8592233 86.8205607,12.815534 86.8205607,12.815534 L86.528972,9.61165049 L86.528972,9.61165049 Z" id="Shape"></path>
                    </g>
                </g>
                <g id="Shape_4_1_" transform="translate(77.271028, 18.932039)" fill="#BFAE94" sketch:type="MSShapeGroup">
                    <g id="Shape_4">
                        <path d="M10.7158879,3.93203883 C10.2785047,2.47572816 9.8411215,3.6407767 5.61308411,1.23786408 C1.31214953,-1.16504854 0.728971963,5.16990291 0.58317757,7.35436893 C0.437383178,9.61165049 14.2149533,13.9805825 14.2149533,13.9805825 C14.2149533,13.9805825 11.0803738,5.38834951 10.7158879,3.93203883 L10.7158879,3.93203883 Z" id="Shape"></path>
                    </g>
                </g>
                <g id="Shape_5_1_" transform="translate(61.233645, 18.203883)" fill="#BFAE94" sketch:type="MSShapeGroup">
                    <g id="Shape_5">
                        <path d="M6.12336449,0.291262136 C3.13457944,1.51267887e-15 0.801869159,-0.145631068 0.58317757,1.67475728 C0.364485981,3.49514563 0.437383178,8.08252427 0.437383178,8.08252427 L14.2149533,8.30097087 C14.2149533,8.30097087 14.2149533,3.27669903 14.3607477,1.89320388 C14.5065421,0.436893204 9.11214953,0.582524272 6.12336449,0.291262136 L6.12336449,0.291262136 Z" id="Shape"></path>
                    </g>
                </g>
                <g id="Shape_6_1_" transform="translate(42.280374, 18.932039)" fill="#BFAE94" sketch:type="MSShapeGroup">
                    <g id="Shape_6">
                        <path d="M16.2560748,0.509708738 C15.8915888,-0.582524272 3.9364486,0.72815534 1.74953271,1.16504854 C-0.364485981,1.60194175 1.38504673,5.89805825 1.60373832,7.57281553 C1.82242991,9.24757282 16.1102804,6.91747573 16.1102804,6.91747573 C16.1102804,6.91747573 16.6205607,1.60194175 16.2560748,0.509708738 L16.2560748,0.509708738 Z" id="Shape"></path>
                    </g>
                </g>
                <g id="Shape_7_1_" transform="translate(27.700935, 21.116505)" fill="#BFAE94" sketch:type="MSShapeGroup">
                    <g id="Shape_7">
                        <path d="M11.6635514,0.291262136 C11.6635514,0.291262136 3.8635514,0.509708738 1.53084112,3.71359223 C-0.801869159,6.91747573 1.38504673,10.1213592 1.38504673,10.1213592 L12.3196262,6.62621359 L11.6635514,0.291262136 L11.6635514,0.291262136 Z" id="Shape"></path>
                    </g>
                </g>
                <g id="Shape_8_1_" transform="translate(14.579439, 25.485437)" fill="#BFAE94" sketch:type="MSShapeGroup">
                    <g id="Shape_8">
                        <path d="M3.13457944,5.31553398 C-0.145794393,8.59223301 0.728971963,13.5436893 0.728971963,13.5436893 L10.6429907,7.7184466 L10.7158879,0.509708738 C10.7158879,0.509708738 6.34205607,2.03883495 3.13457944,5.31553398 L3.13457944,5.31553398 Z" id="Shape"></path>
                    </g>
                </g>
                <g id="Shape_9_1_" transform="translate(70.710280, 8.737864)" fill="#BFAE94" sketch:type="MSShapeGroup">
                    <g id="Shape_9">
                        <path d="M9.7682243,3.6407767 C8.52897196,2.54854369 3.49906542,-0.145631068 1.38504673,0.509708738 C-0.728971963,1.16504854 1.31214953,7.7184466 1.31214953,7.7184466 L15.0168224,8.95631068 C14.9439252,8.95631068 10.9345794,4.73300971 9.7682243,3.6407767 L9.7682243,3.6407767 Z" id="Shape"></path>
                    </g>
                </g>
                <g id="Shape_10_1_" transform="translate(54.672897, 4.368932)" fill="#BFAE94" sketch:type="MSShapeGroup">
                    <g id="Shape_10">
                        <path d="M13.2672897,4.44174757 C13.4859813,2.76699029 6.12336449,0.655339806 4.00934579,0.582524272 C1.82242991,0.509708738 -0.0728971963,10.0485437 0.291588785,11.3592233 C0.58317757,12.6699029 13.1214953,14.1262136 13.2672897,11.6504854 C13.4130841,9.17475728 13.1214953,6.11650485 13.2672897,4.44174757 L13.2672897,4.44174757 Z" id="Shape"></path>
                    </g>
                </g>
                <g id="Shape_11_1_" transform="translate(41.551402, 5.097087)" fill="#BFAE94" sketch:type="MSShapeGroup">
                    <g id="Shape_11">
                        <path d="M2.69719626,0.509708738 C1.45794393,1.01941748 0.656074766,11.9417476 0.656074766,11.9417476 L11.153271,11.6504854 C11.153271,11.6504854 12.4654206,3.27669903 12.611215,1.89320388 C12.6841121,0.509708738 3.8635514,0.072815534 2.69719626,0.509708738 L2.69719626,0.509708738 Z" id="Shape"></path>
                    </g>
                </g>
                <g id="Shape_12_1_" transform="translate(29.887850, 8.009709)" fill="#BFAE94" sketch:type="MSShapeGroup">
                    <g id="Shape_12">
                        <path d="M9.91401869,10.1213592 C9.54953271,7.86407767 9.54953271,2.25728155 9.7682243,0.509708738 C9.91401869,-1.23786408 0.874766355,3.49514563 0.510280374,4.66019417 C0.145794393,5.82524272 2.11401869,12.5242718 2.11401869,12.5242718 C2.11401869,12.5242718 10.2785047,12.3786408 9.91401869,10.1213592 L9.91401869,10.1213592 Z" id="Shape"></path>
                    </g>
                </g>
                <g id="Shape_13_1_" transform="translate(16.766355, 14.563107)" fill="#BFAE94" sketch:type="MSShapeGroup">
                    <g id="Shape_13">
                        <path d="M9.91401869,0.145631068 C9.91401869,0.145631068 3.8635514,5.75242718 3.06168224,6.77184466 C2.25981308,7.79126214 -0.0728971963,13.6893204 0.58317757,13.2524272 C1.23925234,12.815534 12.1009346,6.33495146 12.1009346,6.33495146 L9.91401869,0.145631068 L9.91401869,0.145631068 Z" id="Shape"></path>
                    </g>
                </g>
                <g id="Ellipse_1_1_" transform="translate(131.214953, 8.009709)" fill="#F4FFFD" sketch:type="MSShapeGroup">
                    <g id="Ellipse_1">
                        <path d="M10.5542373,18.5157399 C15.239803,18.038675 18.6510333,13.8577911 18.1734334,9.17747436 C17.6958335,4.49715759 13.5102608,1.08974867 8.82469508,1.56681353 C4.13912935,2.04387838 0.72789904,6.22476226 1.20549892,10.905079 C1.68309881,15.5853958 5.86867153,18.9928047 10.5542373,18.5157399 L10.5542373,18.5157399 Z" id="Oval"></path>
                    </g>
                </g>
                <g id="Ellipse_1_copy_1_" transform="translate(142.878505, 16.019417)" fill="#1B1B25" sketch:type="MSShapeGroup">
                    <g id="Ellipse_1_copy">
                        <path d="M3.29525521,5.22453417 C4.61682503,5.08997742 5.57896692,3.91075376 5.44425926,2.59066441 C5.3095516,1.27057507 4.12900545,0.309511013 2.80743563,0.444067768 C1.48586581,0.578624523 0.523723923,1.75784818 0.658431583,3.07793753 C0.793139242,4.39802687 1.97368539,5.35909093 3.29525521,5.22453417 L3.29525521,5.22453417 Z" id="Oval"></path>
                    </g>
                </g>
                <g id="Shape_20_1_" transform="translate(119.551402, 21.116505)">
                    <g id="Shape_20"></g>
                </g>
                <g id="Shape_21_1_" transform="translate(119.551402, 21.116505)" fill="#205851" sketch:type="MSShapeGroup">
                    <g id="Shape_21" transform="translate(0.728972, 1.456311)">
                        <path d="M2.18691589,0 C2.18691589,0 0.364485981,2.54854369 0.728971963,5.09708738 C1.09345794,7.64563107 2.98878505,8.81067961 2.98878505,8.81067961 L3.06168224,7.64563107 C3.06168224,7.64563107 2.98878505,7.42718447 2.18691589,5.75242718 C1.31214953,3.93203883 2.18691589,0 2.18691589,0 L2.18691589,0 Z" id="Shape"></path>
                    </g>
                    <path d="M2.25981308,0.582524272 C-0.510280374,1.67475728 0.0728971963,2.76699029 0.0728971963,2.76699029 L5.17570093,0.582524272 C5.17570093,0.582524272 4.95700935,-0.509708738 2.25981308,0.582524272 L2.25981308,0.582524272 Z" id="Shape"></path>
                </g>
            </g>
        </g>
    </g>
</svg>