<?xml version="1.0" encoding="UTF-8" standalone="no"?>
<svg width="134px" height="160px" viewBox="0 0 134 160" version="1.1" xmlns="http://www.w3.org/2000/svg" xmlns:xlink="http://www.w3.org/1999/xlink" xmlns:sketch="http://www.bohemiancoding.com/sketch/ns">
    <!-- Generator: Sketch 3.3.3 (12072) - http://www.bohemiancoding.com/sketch -->
    <title>award-project</title>
    <desc>Created with Sketch.</desc>
    <defs>
        <path id="path-1" d="M56.5,113 C87.7040884,113 113,87.7040884 113,56.5 C113,25.2959116 87.7040884,0 56.5,0 C25.2959116,0 0,25.2959116 0,56.5 C0,87.7040884 25.2959116,113 56.5,113 Z"></path>
        <path id="path-3" d="M27.3915302,0.41380152 L0.946011067,25.7220025 L37.302667,24.6875835 L27.3915302,0.41380152 Z"></path>
    </defs>
    <g id="Page-1" stroke="none" stroke-width="1" fill="none" fill-rule="evenodd" sketch:type="MSPage">
        <g id="award-project" sketch:type="MSLayerGroup" transform="translate(0.119907, 0.000000)">
            <path d="M43.6325443,82.9305307 L70.2794208,82.9305307 L70.2794208,157.689823 L57.4793207,148.807531 L43.6325443,157.689823 L43.6325443,82.9305307 Z" id="Rectangle-32" fill="#404D5B" sketch:type="MSShapeGroup" transform="translate(56.955983, 120.310177) rotate(-345.000000) translate(-56.955983, -120.310177) "></path>
            <path d="M65.1325443,82.9305307 L91.7794208,82.9305307 L91.7794208,157.689823 L78.9793207,148.807531 L65.1325443,157.689823 L65.1325443,82.9305307 Z" id="Rectangle-32-Copy" fill="#404D5B" sketch:type="MSShapeGroup" transform="translate(78.455983, 120.310177) scale(-1, 1) rotate(-345.000000) translate(-78.455983, -120.310177) "></path>
            <circle id="Oval-23" fill="#404D5B" sketch:type="MSShapeGroup" cx="66.5" cy="66.8101769" r="66.5"></circle>
            <g id="front-facing-turtle-copy-2" transform="translate(10.000000, 10.310177)">
                <mask id="mask-2" sketch:name="Mask" fill="white">
                    <use xlink:href="#path-1"></use>
                </mask>
                <use id="Mask" fill="#586A7E" sketch:type="MSShapeGroup" xlink:href="#path-1"></use>
                <g id="bunny-copy" mask="url(#mask-2)" sketch:type="MSShapeGroup">
                    <g transform="translate(97.355830, 71.064752) scale(-1, 1) rotate(-32.000000) translate(-97.355830, -71.064752) translate(45.355830, 20.064752)">
                        <path d="M57.2169708,70.7996812 C59.4499214,76.119454 59.2016269,82.6828966 65.3494689,87.2257925 C71.4973109,91.7686884 71.5704388,93.3991295 76.5261267,93.3991295 C81.4818145,93.3991295 84.2844822,89.9165205 80.4053044,87.4675246 C76.5261267,85.0185286 69.0449764,80.004255 69.0449764,75.4246825 C69.0449764,70.84511 54.9840201,65.4799085 57.2169708,70.7996812 Z" id="Path-23-Copy" fill="#389086" transform="translate(69.601156, 80.992947) rotate(58.000000) translate(-69.601156, -80.992947) "></path>
                        <path d="M79.4260319,37.2083348 C85.8445028,36.415565 91.0166912,38.1497217 93.9297232,41.7816587 C96.8427552,45.4135957 99.1713992,52.0845182 101.776202,53.7943842 C104.381005,55.5042502 104.073667,57.0578006 102.171733,59.437466 C100.269799,61.8171313 98.9059302,63.4082324 96.4178267,64.3312806 C93.9297232,65.2543287 86.3219882,66.1869829 86.3219882,66.1869829 C86.3219882,66.1869829 86.4094089,68.9407057 84.3097097,71.6120439 C82.2100105,74.283382 80.7629999,76.494504 71.8966892,80.8902585 C63.0303785,85.2860131 42.3254053,88.8248052 32.0424913,89.9129018 C21.7595773,91.0009983 20.4037265,89.9129034 12.3692805,91.4227902 C4.33483442,92.9326769 0.899147943,90.2425575 0.366489615,85.2860145 C-0.281032059,79.2606341 3.85579401,77.1103387 8.65459699,77.3930454 C13.4534,77.6757521 14.9339959,81.3373737 14.9339959,81.3373737 C14.9339959,81.3373737 12.5857539,42.2287739 36.3523546,37.2083348 C60.1189553,32.1878956 67.6661115,45.6694643 67.6661115,45.6694643 C67.6661115,45.6694643 73.007561,38.0011046 79.4260319,37.2083348 Z" id="Path-1" fill="#52D2C3"></path>
                        <ellipse id="Oval-36" fill="#FFFFFF" cx="84.4861022" cy="48.6748944" rx="7.83658537" ry="7.68207863"></ellipse>
                        <ellipse id="Oval-36-Copy" fill="#000000" cx="88.0511169" cy="51.0518248" rx="2.12599925" ry="2.08408288"></ellipse>
                        <path d="M30.2755244,54.3122152 C40.6373865,48.2352124 46.9489732,55.998878 48.4282388,62.2476957 C49.9075044,68.4965134 48.4282402,83.6068085 48.4282402,83.6068085 C48.4282402,83.6068085 59.9654339,83.3267342 62.3310351,85.8107381 C64.6966363,88.2947421 67.040129,91.8940523 50.7190115,91.8940508 C34.3978939,91.8940493 20.4615665,92.7677719 18.4640448,90.1736543 C16.466523,87.5795367 19.9136624,60.3892181 30.2755244,54.3122152 Z" id="Path-22" fill="#58EDDC" transform="translate(40.965581, 72.072116) rotate(32.000000) translate(-40.965581, -72.072116) "></path>
                        <path d="M65.1683982,69.2424311 C67.4013489,74.5622039 68.1997094,80.4973591 73.3008963,85.6685424 C78.4020833,90.8397257 79.5218662,91.8418794 84.4775541,91.8418794 C89.433242,91.8418794 92.2359097,88.3592704 88.3567319,85.9102745 C84.4775541,83.4612785 76.9964038,78.4470049 76.9964038,73.8674324 C76.9964038,69.2878599 62.9354476,63.9226584 65.1683982,69.2424311 Z" id="Path-23" fill="#52D2C3" transform="translate(77.552584, 79.435697) rotate(-17.000000) translate(-77.552584, -79.435697) "></path>
                        <path d="M76.0291364,40.304595 C76.0291364,40.304595 68.1232718,40.9879211 65.4702102,30.3337943 C62.8171486,19.6796676 61.6628485,13.0097925 63.5334278,5.32307267 C65.404007,-2.36364716 66.6708123,0.613534233 70.6051752,3.73397431 C74.5395381,6.85441439 80.1788604,14.3714439 82.1570205,22.3153106 C84.1351805,30.2591772 81.3843146,38.0577544 81.3843146,38.0577544 L76.0291364,40.304595 L76.0291364,40.304595 Z" id="Path-25" fill="#52D2C3"></path>
                        <path d="M76.4391913,37.7324483 C76.4391913,37.7324483 72.2922859,38.090877 70.9006613,32.502411 C69.5090368,26.913945 68.9035656,23.4153597 69.8847505,19.3834035 C70.8659354,15.3514473 71.5304196,16.9130842 73.594132,18.5498653 C75.6578443,20.1866464 78.6158682,24.1295941 79.6534831,28.2964329 C80.6910979,32.4632717 79.2481715,36.553901 79.2481715,36.553901 L76.4391913,37.7324483 L76.4391913,37.7324483 Z" id="Path-25-Copy" fill="#389086"></path>
                    </g>
                </g>
            </g>
            <g id="Group" transform="translate(14.000000, 47.310177)">
                <mask id="mask-4" sketch:name="Mask" fill="white">
                    <use xlink:href="#path-3"></use>
                </mask>
                <use id="Mask" fill="#52D2C3" sketch:type="MSShapeGroup" xlink:href="#path-3"></use>
                <g mask="url(#mask-4)" fill="#FFFFFF" sketch:type="MSShapeGroup">
                    <g transform="translate(-5.000000, -3.000000)">
                        <rect id="Rectangle-41" x="19.1111111" y="14.5" width="4.77777778" height="4.83333333"></rect>
                        <rect id="Rectangle-41-Copy" x="9.55555556" y="14.5" width="4.77777778" height="4.83333333"></rect>
                        <rect id="Rectangle-41-Copy-3" x="38.2222222" y="14.5" width="4.77777778" height="4.83333333"></rect>
                        <rect id="Rectangle-41-Copy-2" x="28.6666667" y="14.5" width="4.77777778" height="4.83333333"></rect>
                        <rect id="Rectangle-41-Copy-7" x="14.3333333" y="19.3333333" width="4.77777778" height="4.83333333"></rect>
                        <rect id="Rectangle-41-Copy-4" x="4.77777778" y="19.3333333" width="4.77777778" height="4.83333333"></rect>
                        <rect id="Rectangle-41-Copy-24" x="38.2222222" y="24.1666667" width="4.77777778" height="4.83333333"></rect>
                        <rect id="Rectangle-41-Copy-5" x="33.4444444" y="19.3333333" width="4.77777778" height="4.83333333"></rect>
                        <rect id="Rectangle-41-Copy-6" x="23.8888889" y="19.3333333" width="4.77777778" height="4.83333333"></rect>
                        <rect id="Rectangle-41-Copy-11" x="9.55555556" y="24.1666667" width="4.77777778" height="4.83333333"></rect>
                        <rect id="Rectangle-41-Copy-8" x="0" y="24.1666667" width="4.77777778" height="4.83333333"></rect>
                        <rect id="Rectangle-41-Copy-9" x="28.6666667" y="24.1666667" width="4.77777778" height="4.83333333"></rect>
                        <rect id="Rectangle-41-Copy-10" x="19.1111111" y="24.1666667" width="4.77777778" height="4.83333333"></rect>
                        <rect id="Rectangle-41-Copy-15" x="23.8888889" y="9.66666667" width="4.77777778" height="4.83333333"></rect>
                        <rect id="Rectangle-41-Copy-12" x="14.3333333" y="9.66666667" width="4.77777778" height="4.83333333"></rect>
                        <rect id="Rectangle-41-Copy-14" x="33.4444444" y="9.66666667" width="4.77777778" height="4.83333333"></rect>
                        <rect id="Rectangle-41-Copy-19" x="28.6666667" y="4.83333333" width="4.77777778" height="4.83333333"></rect>
                        <rect id="Rectangle-41-Copy-16" x="19.1111111" y="4.83333333" width="4.77777778" height="4.83333333"></rect>
                        <rect id="Rectangle-41-Copy-20" x="23.8888889" y="0" width="4.77777778" height="4.83333333"></rect>
                    </g>
                </g>
            </g>
            <path d="M41.1964993,45.2578125 L59.8547025,91.0097656" id="Path-97" stroke="#404D5B" stroke-width="4" stroke-linecap="round" sketch:type="MSShapeGroup"></path>
        </g>
    </g>
</svg>