<?xml version="1.0" encoding="UTF-8" standalone="no"?>
<svg width="154px" height="130px" viewBox="0 0 154 130" version="1.1" xmlns="http://www.w3.org/2000/svg" xmlns:xlink="http://www.w3.org/1999/xlink" xmlns:sketch="http://www.bohemiancoding.com/sketch/ns">
    <!-- Generator: Sketch 3.3.2 (12043) - http://www.bohemiancoding.com/sketch -->
    <title>bird-left</title>
    <desc>Created with Sketch.</desc>
    <defs></defs>
    <g id="Page-1" stroke="none" stroke-width="1" fill="none" fill-rule="evenodd" sketch:type="MSPage">
        <g id="bird-left" sketch:type="MSLayerGroup" transform="translate(77.000000, 65.000000) scale(-1, 1) translate(-77.000000, -65.000000) ">
            <path d="M1.2118528,61.5957031 C1.2118528,55.9977557 0.211852798,44.8018607 0.211852798,44.8018607 C0.211852798,44.8018607 12.1806028,54.8643607 27.2743528,49.4561576 C42.3681028,44.0479545 52.6787107,32.0556546 52.6787107,32.0556546 C52.6787107,32.0556546 54.5878904,41.9399318 43.106384,62.3956107 C31.6248777,82.8512897 0.211852798,77.4673881 0.211852798,77.4673881 C0.211852798,77.4673881 1.2118528,66.8862648 1.2118528,61.5957031 Z" id="Path-3" fill="#1B1A25" sketch:type="MSShapeGroup"></path>
            <path d="M52.4690734,31.9624023 C52.4690734,31.9624023 44.8645809,98.8930664 40.8684871,112.57666 C36.8723934,126.260254 38.1258111,127.688965 40.868487,129.116211 C43.611163,130.543457 46.4676086,126.170898 48.5144836,127.643555 C50.5613586,129.116211 51.5286434,130 54.2649719,130 C57.0013003,130 57.1219045,126.51416 59.7659475,127.643555 C62.4099904,128.772949 64.5218068,130 67.204424,127.643555 C69.8870412,125.287109 74.4353811,132.811035 68.6961232,112.047363 C62.9568654,91.2836914 52.4690734,31.9624023 52.4690734,31.9624023 Z" id="Path-4" fill="#1B1A25" sketch:type="MSShapeGroup"></path>
            <path d="M52,33.7265212 L60.1113281,26.5732003 C60.1113281,26.5732003 56.921875,8.62105237 67.0410156,4.96187274 C77.1601562,1.30269311 83.0644531,5.64448993 86.7128906,11.0292556 C90.3613281,16.4140212 86.234375,29.3358968 94.8574219,31.5312087 C103.480469,33.7265206 121.767578,25.26363 131.324219,33.7265206 C140.880859,42.1894112 153.173828,50.59371 153.173828,50.59371 C153.173828,50.59371 119.070313,77.0272961 98.1152344,68.0585499 C77.1601562,59.0898037 83.0253906,43.9569899 77.1601562,38.1347256 C71.2949219,32.3124613 52,33.7265212 52,33.7265212 Z" id="Path-1" fill="#52D2C3" sketch:type="MSShapeGroup"></path>
            <ellipse id="Oval-39-Copy-3" fill="#FFFFFF" sketch:type="MSShapeGroup" cx="72.0980923" cy="16.7036038" rx="9.09809233" ry="9.09570312"></ellipse>
            <path d="M67.0326974,20.6717027 C68.70761,20.6717027 70.0653949,19.3142744 70.0653949,17.6398017 C70.0653949,15.965329 68.70761,14.6079007 67.0326974,14.6079007 C65.3577849,14.6079007 64,15.965329 64,17.6398017 C64,19.3142744 65.3577849,20.6717027 67.0326974,20.6717027 Z" id="Oval-39-Copy-5" fill="#000000" sketch:type="MSShapeGroup"></path>
            <path d="M97,38.52001 C97,38.52001 108.769531,33.8539944 113.378714,20.6709424 C117.987896,7.48789029 114.539062,0.607900663 114.539062,0.607900663 C114.539062,0.607900663 128.361328,5.43407254 129.481445,16.8217679 C130.601562,28.2094632 128.458008,33.5385647 120.357422,38.52001 C112.256836,43.5014554 97,38.52001 97,38.52001 Z" id="Path-7" fill="#389086" sketch:type="MSShapeGroup"></path>
        </g>
    </g>
</svg>