<?xml version="1.0" encoding="UTF-8" standalone="no"?>
<svg viewBox="0 0 1445 498" version="1.1" xmlns="http://www.w3.org/2000/svg" xmlns:xlink="http://www.w3.org/1999/xlink" xmlns:sketch="http://www.bohemiancoding.com/sketch/ns">
    <!-- Generator: Sketch 3.3.2 (12043) - http://www.bohemiancoding.com/sketch -->
    <title>footer</title>
    <desc>Created with Sketch.</desc>
    <defs></defs>
    <g id="Page-1" stroke="none" stroke-width="1" fill="none" fill-rule="evenodd" sketch:type="MSPage">
        <g id="footer" sketch:type="MSLayerGroup">
            <rect id="background" fill="#1B1A25" sketch:type="MSShapeGroup" x="0" y="0" width="1445" height="498"></rect>
            <path d="M427.128906,281.746094 C427.128906,281.746094 541.152344,229.96875 635.632812,229.96875 C730.113281,229.96875 778.414062,269.191406 837.101562,273.363281 C895.789062,277.535156 1078.57422,233.660156 1186.03906,281.964844 C1293.50391,330.269531 1392.76172,349.601562 1392.76172,349.601562 L986.484375,396.125 L468.703125,375.96875 L427.128906,281.746094 Z" id="hill" fill="#201E2F" sketch:type="MSShapeGroup"></path>
            <path d="M612.680664,362.594727 C612.680664,362.594727 606.34375,348.460937 562.992188,318.574219 C519.640625,288.6875 458.480469,259.148438 426.203125,259.148438 C393.925781,259.148438 309.4375,253.976562 266.738281,231.042969 C224.039062,208.109375 174,160.152344 116.007812,160.152344 C58.015625,160.152344 1.73046875,152.008789 1.73046875,152.008789 L1.73046875,494.854492 L389.039063,495.875977 L606.828125,449.195312 L612.680664,362.594727 Z" id="hill" fill="#2A283A" sketch:type="MSShapeGroup"></path>
            <path d="M910.058594,359.410156 C910.058594,359.410156 1003.0625,299.679688 1057.57812,313.191406 C1112.09375,326.703125 1204.00391,321.488282 1284.06641,310.800781 C1364.12891,300.113281 1443.84863,230.451172 1443.84863,230.451172 L1443.84863,495.020508 L1028.61719,496.453125 L910.058594,359.410156 Z" id="hill" fill="#2A293A" sketch:type="MSShapeGroup"></path>
            <path d="M612.292969,362.640625 C612.292969,362.640625 608.648438,392.871094 563.253906,399.78125 C517.859375,406.691406 481.332024,413.343749 436.761711,418.45703 C392.191399,423.570311 355.351563,440.957034 342.496094,450.953128 C329.640625,460.949221 289.053711,490.015625 227.850586,494.1875 C166.647461,498.359375 1132.53029,496.053711 1132.53029,496.053711 C1132.53029,496.053711 1044.99219,477.613281 1024.87893,462.058594 C1004.76567,446.503906 1017.2344,413.183594 974.312523,399.78125 C931.390648,386.378906 921.485375,359.699219 910.711937,359.699219 C899.9385,359.699219 612.292969,362.640625 612.292969,362.640625 Z" id="river" stroke-linecap="round" fill="#404D5B" sketch:type="MSShapeGroup"></path>
            <path d="M611.90918,362.529297 C611.90918,362.529297 595.524112,392.003906 545.203125,398.914062 C494.882138,405.824219 457.430758,409.605469 408.023438,414.71875 C358.616117,419.832031 315.431311,440.957034 301.180699,450.953128 C286.930086,460.949221 241.938464,490.015625 174.09325,494.1875 C106.248036,498.359375 1176.95361,496.053711 1176.95361,496.053711 C1176.95361,496.053711 1066.90934,472.238281 1044.61328,456.683594 C1022.31723,441.128906 1035.63467,407.316406 988.054688,393.914062 C940.474702,380.511719 926.80591,359.699219 914.863281,359.699219 C902.920653,359.699219 611.90918,362.529297 611.90918,362.529297 Z" id="river" stroke-linecap="round" opacity="0.33879431" fill="#404D5B" sketch:type="MSShapeGroup"></path>
            
  
           
            <g id="happy-turtle" transform="translate(178.000000, 363.000000)">
                <g id="Shape_18_1_" transform="translate(83.102804, 43.689320)" fill="#389086" sketch:type="MSShapeGroup">
                    <g id="Shape_18">
                        <path d="M9.8411215,1.67475728 L0,0.218446602 L2.91588785,21.0436893 C2.91588785,21.0436893 11.517757,21.4805825 14.9439252,20.6067961 C18.3700935,19.7330097 20.2654206,17.6213592 20.2654206,17.6213592 L9.8411215,1.67475728 L9.8411215,1.67475728 Z" id="Shape"></path>
                    </g>
                </g>
                <g id="Shape_18_copy_1_" transform="translate(26.971963, 48.786408)" fill="#389086" sketch:type="MSShapeGroup">
                    <g id="Shape_18_copy">
                        <path d="M13.5588785,5.09708738 L4.95700935,0.145631068 L0.218691589,20.6067961 C0.218691589,20.6067961 8.09158879,24.1747573 11.5906542,24.6116505 C15.0897196,25.0485437 17.6411215,23.8106796 17.6411215,23.8106796 L13.5588785,5.09708738 L13.5588785,5.09708738 Z" id="Shape"></path>
                    </g>
                </g>
                <g id="Shape_3_1_" fill="#52D2C3" sketch:type="MSShapeGroup">
                    <g id="Shape_3">
                        <path d="M155.854206,19.2961165 C154.542056,2.69417476 138.213084,-2.33009709 126.039252,2.11165049 C115.979439,5.82524272 110.51215,28.1067961 107.013084,35.3883495 C103.514019,42.6699029 96.0785047,41.2135922 96.0785047,41.2135922 C96.0785047,41.2135922 83.7588785,32.184466 70.7831776,28.6893204 C57.8074766,25.1941748 33.0224299,32.2572816 25.5140187,36.407767 C18.0785047,40.5582524 9.11214953,50.0970874 9.11214953,50.0970874 C9.11214953,50.0970874 8.67476636,51.1165049 5.10280374,50.5339806 C2.62429907,50.0970874 0.801869159,47.7669903 0.801869159,47.7669903 C0.801869159,47.7669903 -1.53084112,51.407767 2.25981308,54.0291262 C8.67476636,58.3980583 14.2878505,52.7912621 14.2878505,52.7912621 L10.2056075,68.4466019 C10.2056075,68.4466019 15.964486,73.7621359 21.7233645,74.3446602 C26.8261682,74.8543689 30.835514,73.1796117 30.9084112,73.5436893 L32.7308411,51.6990291 C32.7308411,51.6990291 41.7700935,58.2524272 53.4336449,56.7961165 C66.0448598,55.2669903 73.6261682,48.3495146 73.6261682,48.3495146 L73.4803738,70.8495146 C73.4803738,70.8495146 79.6766355,73.3980583 86.528972,71.9417476 C94.8392523,70.1941748 95.9327103,67.4271845 95.7140187,66.9902913 C94.5476636,64.1504854 87.0392523,45.4368932 87.0392523,45.4368932 C87.7682243,46.0194175 108.325234,53.9563107 119.842991,37.7184466 C123.196262,33.0582524 123.414953,31.0194175 123.269159,30.2912621 C123.196262,30.0728155 123.123364,29.9271845 123.123364,29.9271845 C123.123364,29.9271845 123.196262,30 123.269159,30.2912621 C123.560748,31.1650485 124.581308,33.4951456 126.768224,35.7524272 C134.714019,43.6893204 157.239252,37.1359223 155.854206,19.2961165 L155.854206,19.2961165 Z" id="Shape"></path>
                    </g>
                </g>
                <g id="Shape_1_1_" transform="translate(9.476636, 3.640777)" fill="#DECBAC" sketch:type="MSShapeGroup">
                    <g id="Shape_1">
                        <path d="M41.0411215,0.509708738 C-8.60186916,5.53398058 0.874766355,42.3058252 0.874766355,42.3058252 C0.874766355,42.3058252 20.1925234,30.8737864 43.082243,28.3980583 C65.8990654,25.9223301 86.528972,34.368932 86.528972,34.368932 C86.528972,34.368932 91.1943925,-4.58737864 41.0411215,0.509708738 L41.0411215,0.509708738 Z" id="Shape"></path>
                    </g>
                </g>
                <g id="Shape_2_1_" transform="translate(9.476636, 28.398058)" fill="#FFF1DB" sketch:type="MSShapeGroup">
                    <g id="Shape_2">
                        <path d="M86.528972,9.61165049 C86.528972,9.61165049 65.3158879,-2.69417476 40.4579439,0.873786408 C19.1719626,3.8592233 0.728971963,17.1116505 0.728971963,17.1116505 L0.291588785,21.1165049 C0.291588785,21.1165049 18.1514019,9.10194175 41.6971963,6.33495146 C59.3383178,3.8592233 86.8205607,12.815534 86.8205607,12.815534 L86.528972,9.61165049 L86.528972,9.61165049 Z" id="Shape"></path>
                    </g>
                </g>
                <g id="Shape_4_1_" transform="translate(77.271028, 18.932039)" fill="#BFAE94" sketch:type="MSShapeGroup">
                    <g id="Shape_4">
                        <path d="M10.7158879,3.93203883 C10.2785047,2.47572816 9.8411215,3.6407767 5.61308411,1.23786408 C1.31214953,-1.16504854 0.728971963,5.16990291 0.58317757,7.35436893 C0.437383178,9.61165049 14.2149533,13.9805825 14.2149533,13.9805825 C14.2149533,13.9805825 11.0803738,5.38834951 10.7158879,3.93203883 L10.7158879,3.93203883 Z" id="Shape"></path>
                    </g>
                </g>
                <g id="Shape_5_1_" transform="translate(61.233645, 18.203883)" fill="#BFAE94" sketch:type="MSShapeGroup">
                    <g id="Shape_5">
                        <path d="M6.12336449,0.291262136 C3.13457944,1.51267887e-15 0.801869159,-0.145631068 0.58317757,1.67475728 C0.364485981,3.49514563 0.437383178,8.08252427 0.437383178,8.08252427 L14.2149533,8.30097087 C14.2149533,8.30097087 14.2149533,3.27669903 14.3607477,1.89320388 C14.5065421,0.436893204 9.11214953,0.582524272 6.12336449,0.291262136 L6.12336449,0.291262136 Z" id="Shape"></path>
                    </g>
                </g>
                <g id="Shape_6_1_" transform="translate(42.280374, 18.932039)" fill="#BFAE94" sketch:type="MSShapeGroup">
                    <g id="Shape_6">
                        <path d="M16.2560748,0.509708738 C15.8915888,-0.582524272 3.9364486,0.72815534 1.74953271,1.16504854 C-0.364485981,1.60194175 1.38504673,5.89805825 1.60373832,7.57281553 C1.82242991,9.24757282 16.1102804,6.91747573 16.1102804,6.91747573 C16.1102804,6.91747573 16.6205607,1.60194175 16.2560748,0.509708738 L16.2560748,0.509708738 Z" id="Shape"></path>
                    </g>
                </g>
                <g id="Shape_7_1_" transform="translate(27.700935, 21.116505)" fill="#BFAE94" sketch:type="MSShapeGroup">
                    <g id="Shape_7">
                        <path d="M11.6635514,0.291262136 C11.6635514,0.291262136 3.8635514,0.509708738 1.53084112,3.71359223 C-0.801869159,6.91747573 1.38504673,10.1213592 1.38504673,10.1213592 L12.3196262,6.62621359 L11.6635514,0.291262136 L11.6635514,0.291262136 Z" id="Shape"></path>
                    </g>
                </g>
                <g id="Shape_8_1_" transform="translate(14.579439, 25.485437)" fill="#BFAE94" sketch:type="MSShapeGroup">
                    <g id="Shape_8">
                        <path d="M3.13457944,5.31553398 C-0.145794393,8.59223301 0.728971963,13.5436893 0.728971963,13.5436893 L10.6429907,7.7184466 L10.7158879,0.509708738 C10.7158879,0.509708738 6.34205607,2.03883495 3.13457944,5.31553398 L3.13457944,5.31553398 Z" id="Shape"></path>
                    </g>
                </g>
                <g id="Shape_9_1_" transform="translate(70.710280, 8.737864)" fill="#BFAE94" sketch:type="MSShapeGroup">
                    <g id="Shape_9">
                        <path d="M9.7682243,3.6407767 C8.52897196,2.54854369 3.49906542,-0.145631068 1.38504673,0.509708738 C-0.728971963,1.16504854 1.31214953,7.7184466 1.31214953,7.7184466 L15.0168224,8.95631068 C14.9439252,8.95631068 10.9345794,4.73300971 9.7682243,3.6407767 L9.7682243,3.6407767 Z" id="Shape"></path>
                    </g>
                </g>
                <g id="Shape_10_1_" transform="translate(54.672897, 4.368932)" fill="#BFAE94" sketch:type="MSShapeGroup">
                    <g id="Shape_10">
                        <path d="M13.2672897,4.44174757 C13.4859813,2.76699029 6.12336449,0.655339806 4.00934579,0.582524272 C1.82242991,0.509708738 -0.0728971963,10.0485437 0.291588785,11.3592233 C0.58317757,12.6699029 13.1214953,14.1262136 13.2672897,11.6504854 C13.4130841,9.17475728 13.1214953,6.11650485 13.2672897,4.44174757 L13.2672897,4.44174757 Z" id="Shape"></path>
                    </g>
                </g>
                <g id="Shape_11_1_" transform="translate(41.551402, 5.097087)" fill="#BFAE94" sketch:type="MSShapeGroup">
                    <g id="Shape_11">
                        <path d="M2.69719626,0.509708738 C1.45794393,1.01941748 0.656074766,11.9417476 0.656074766,11.9417476 L11.153271,11.6504854 C11.153271,11.6504854 12.4654206,3.27669903 12.611215,1.89320388 C12.6841121,0.509708738 3.8635514,0.072815534 2.69719626,0.509708738 L2.69719626,0.509708738 Z" id="Shape"></path>
                    </g>
                </g>
                <g id="Shape_12_1_" transform="translate(29.887850, 8.009709)" fill="#BFAE94" sketch:type="MSShapeGroup">
                    <g id="Shape_12">
                        <path d="M9.91401869,10.1213592 C9.54953271,7.86407767 9.54953271,2.25728155 9.7682243,0.509708738 C9.91401869,-1.23786408 0.874766355,3.49514563 0.510280374,4.66019417 C0.145794393,5.82524272 2.11401869,12.5242718 2.11401869,12.5242718 C2.11401869,12.5242718 10.2785047,12.3786408 9.91401869,10.1213592 L9.91401869,10.1213592 Z" id="Shape"></path>
                    </g>
                </g>
                <g id="Shape_13_1_" transform="translate(16.766355, 14.563107)" fill="#BFAE94" sketch:type="MSShapeGroup">
                    <g id="Shape_13">
                        <path d="M9.91401869,0.145631068 C9.91401869,0.145631068 3.8635514,5.75242718 3.06168224,6.77184466 C2.25981308,7.79126214 -0.0728971963,13.6893204 0.58317757,13.2524272 C1.23925234,12.815534 12.1009346,6.33495146 12.1009346,6.33495146 L9.91401869,0.145631068 L9.91401869,0.145631068 Z" id="Shape"></path>
                    </g>
                </g>
                <g id="Ellipse_1_1_" transform="translate(131.214953, 8.009709)" fill="#F4FFFD" sketch:type="MSShapeGroup">
                    <g id="Ellipse_1">
                        <path d="M10.5542373,18.5157399 C15.239803,18.038675 18.6510333,13.8577911 18.1734334,9.17747436 C17.6958335,4.49715759 13.5102608,1.08974867 8.82469508,1.56681353 C4.13912935,2.04387838 0.72789904,6.22476226 1.20549892,10.905079 C1.68309881,15.5853958 5.86867153,18.9928047 10.5542373,18.5157399 L10.5542373,18.5157399 Z" id="Oval"></path>
                    </g>
                </g>
                <g id="Ellipse_1_copy_1_" transform="translate(142.878505, 16.019417)" fill="#1B1B25" sketch:type="MSShapeGroup">
                    <g id="Ellipse_1_copy">
                        <path d="M3.29525521,5.22453417 C4.61682503,5.08997742 5.57896692,3.91075376 5.44425926,2.59066441 C5.3095516,1.27057507 4.12900545,0.309511013 2.80743563,0.444067768 C1.48586581,0.578624523 0.523723923,1.75784818 0.658431583,3.07793753 C0.793139242,4.39802687 1.97368539,5.35909093 3.29525521,5.22453417 L3.29525521,5.22453417 Z" id="Oval"></path>
                    </g>
                </g>
                <g id="Shape_20_1_" transform="translate(119.551402, 21.116505)">
                    <g id="Shape_20"></g>
                </g>
                <g id="Shape_21_1_" transform="translate(119.551402, 21.116505)" fill="#205851" sketch:type="MSShapeGroup">
                    <g id="Shape_21" transform="translate(0.728972, 1.456311)">
                        <path d="M2.18691589,0 C2.18691589,0 0.364485981,2.54854369 0.728971963,5.09708738 C1.09345794,7.64563107 2.98878505,8.81067961 2.98878505,8.81067961 L3.06168224,7.64563107 C3.06168224,7.64563107 2.98878505,7.42718447 2.18691589,5.75242718 C1.31214953,3.93203883 2.18691589,0 2.18691589,0 L2.18691589,0 Z" id="Shape"></path>
                    </g>
                    <path d="M2.25981308,0.582524272 C-0.510280374,1.67475728 0.0728971963,2.76699029 0.0728971963,2.76699029 L5.17570093,0.582524272 C5.17570093,0.582524272 4.95700935,-0.509708738 2.25981308,0.582524272 L2.25981308,0.582524272 Z" id="Shape"></path>
                </g>
            </g>
            <path d="M1353.51128,82.9276723 C1363.82386,82.9276723 1372.18386,74.5676703 1372.18386,64.2550853 C1372.18386,53.9425002 1363.82386,45.5824983 1353.51128,45.5824983 C1353.51128,45.5824983 1362.46086,54.5010482 1362.46086,64.8136332 C1362.46086,75.1262183 1353.51128,82.9276723 1353.51128,82.9276723 Z" id="moon" fill="#FFFFFF" sketch:type="MSShapeGroup" transform="translate(1362.847571, 64.255085) rotate(-15.000000) translate(-1362.847571, -64.255085) "></path>
            
            <circle id="star-1" class="animated flash infinite star" fill="#FFFFFF" sketch:type="MSShapeGroup" cx="1136" cy="126" r="3"></circle>
            <circle id="star-2" class="animated flash infinite star" fill="#FFFFFF" sketch:type="MSShapeGroup" cx="1106" cy="76" r="3"></circle>
            <circle id="star-3" class="animated flash infinite star" fill="#FFFFFF" sketch:type="MSShapeGroup" cx="976" cy="146" r="3"></circle>
            <circle id="star-4" class="animated flash infinite star" fill="#FFFFFF" sketch:type="MSShapeGroup" cx="326" cy="176" r="3"></circle>
            <circle id="star-5" class="animated flash infinite star" fill="#FFFFFF" sketch:type="MSShapeGroup" cx="365" cy="166" r="3"></circle>
            <circle id="star-6" class="animated flash infinite star" fill="#FFFFFF" sketch:type="MSShapeGroup" cx="405" cy="156" r="3"></circle>
            <circle id="star-7" class="animated flash infinite star" fill="#FFFFFF" sketch:type="MSShapeGroup" cx="415" cy="56" r="3"></circle>
            <circle id="star-8" class="animated flash infinite star" fill="#FFFFFF" sketch:type="MSShapeGroup" cx="193" cy="54" r="1"></circle>
            <circle id="star-9" class="animated flash infinite star" fill="#FFFFFF" sketch:type="MSShapeGroup" cx="133" cy="104" r="1"></circle>
            <circle id="star-10" class="animated flash infinite star" fill="#FFFFFF" sketch:type="MSShapeGroup" cx="333" cy="94" r="1"></circle>
            <circle id="star-11" class="animated flash infinite star" fill="#FFFFFF" sketch:type="MSShapeGroup" cx="393" cy="124" r="1"></circle>
            <circle id="star-12" class="animated flash infinite star" fill="#FFFFFF" sketch:type="MSShapeGroup" cx="513" cy="154" r="1"></circle>
            <circle id="star-13" class="animated flash infinite star" fill="#FFFFFF" sketch:type="MSShapeGroup" cx="663" cy="124" r="1"></circle>
            <circle id="star-14" class="animated flash infinite star" fill="#FFFFFF" sketch:type="MSShapeGroup" cx="573" cy="174" r="1"></circle>
            <circle id="star-15" class="animated flash infinite star" fill="#FFFFFF" sketch:type="MSShapeGroup" cx="793" cy="174" r="1"></circle>
            <circle id="star-16" class="animated flash infinite star" fill="#FFFFFF" sketch:type="MSShapeGroup" cx="843" cy="124" r="1"></circle>
            <circle id="star-17" class="animated flash infinite star" fill="#FFFFFF" sketch:type="MSShapeGroup" cx="783" cy="124" r="1"></circle>
            <circle id="star-18" class="animated flash infinite star" fill="#FFFFFF" sketch:type="MSShapeGroup" cx="284" cy="86" r="3"></circle>
            <circle id="star-19" class="animated flash infinite star" fill="#FFFFFF" sketch:type="MSShapeGroup" cx="324" cy="36" r="3"></circle>
            <circle id="star-20" class="animated flash infinite star" fill="#FFFFFF" sketch:type="MSShapeGroup" cx="464" cy="227" r="3"></circle>
            <circle id="star-21" class="animated flash infinite star" fill="#FFFFFF" sketch:type="MSShapeGroup" cx="1253" cy="174" r="1"></circle>
            <circle id="star-22" class="animated flash infinite star" fill="#FFFFFF" sketch:type="MSShapeGroup" cx="1303" cy="124" r="1"></circle>
            <circle id="star-23" class="animated flash infinite star" fill="#FFFFFF" sketch:type="MSShapeGroup" cx="1243" cy="124" r="1"></circle>
            <circle id="star-24" class="animated flash infinite star" fill="#FFFFFF" sketch:type="MSShapeGroup" cx="744" cy="186" r="3"></circle>
            <circle id="star-25" class="animated flash infinite star" fill="#FFFFFF" sketch:type="MSShapeGroup" cx="924" cy="227" r="3"></circle>

            <path class="animated flash infinite star" d="M1264,239 C1265.65685,239 1267,237.656854 1267,236 C1267,234.343146 1265.65685,233 1264,233 C1262.34315,233 1261,234.343146 1261,236 C1261,237.656854 1262.34315,239 1264,239 Z" id="star-26" fill="#FFFFFF" sketch:type="MSShapeGroup"></path>
           
            <g id="tree" transform="translate(33.000000, 41.000000)" sketch:type="MSShapeGroup">
                <path d="M47.9609375,174.796875 L41.3984375,208.421875 L70.1992188,209.460938 L61.1640625,170.625 L47.9609375,174.796875 Z" id="trunk" fill="#19182A"></path>
                <path d="M50.9140625,0 L0.828125,165.71875 C0.828125,165.71875 35.0078125,181.007812 59.859375,181.007812 C84.7109375,181.007812 101,170.277344 101,170.277344 L50.9140625,0 Z" id="tree-top" fill="#3A3851" ></path>
            </g>
            <g id="tree" transform="translate(155.000000, 112.000000)" sketch:type="MSShapeGroup">
                <path d="M39.6662283,147.328795 L34.1433323,175.669866 L58.3816136,176.545647 L50.7777692,143.8125 L39.6662283,147.328795 Z" id="trunk" fill="#19182A"></path>
                <path d="M42.1515316,0 L0,139.677232 C0,139.677232 28.7650835,152.563728 49.6797649,152.563728 C70.5944462,152.563728 84.3030631,143.519475 84.3030631,143.519475 L42.1515316,0 Z" id="tree-top" fill="#3A3851"></path>
            </g>
            <g id="tree" transform="translate(349.000000, 179.000000)" sketch:type="MSShapeGroup">
                <path d="M20.9997679,78.2424107 L18.0758818,93.2936012 L30.9079131,93.7587054 L26.8823484,76.375 L20.9997679,78.2424107 Z" id="trunk" fill="#19182A"></path>
                <path d="M22.3155167,0 L0,74.178869 C0,74.178869 15.2285736,81.0225446 26.301052,81.0225446 C37.3735303,81.0225446 44.6310334,76.2193824 44.6310334,76.2193824 L22.3155167,0 Z" id="tree-top" fill="#3A3851"></path>
            </g>
            <g id="tree" transform="translate(1264.000000, 175.000000)" sketch:type="MSShapeGroup">
                <path d="M39.6662283,145.328795 L34.1433323,173.669866 L58.3816136,174.545647 L50.7777692,141.8125 L39.6662283,145.328795 Z" id="trunk" fill="#19182A"></path>
                <path d="M42.1515316,0 L0,139.677232 C0,139.677232 28.7650835,152.563728 49.6797649,152.563728 C70.5944462,152.563728 84.3030631,143.519475 84.3030631,143.519475 L42.1515316,0 Z" id="tree-top" fill="#3A3851"></path>
            </g>
            <g transform="translate(745,340) scale(.8)">
                <g id="fish" sketch:type="MSShapeGroup">
                    <path d="M1.54762712,21.5117631 C5.00075212,30.1367631 17.8493841,32.9814897 31.5329778,32.9814897 C45.2165716,32.9814897 60.1257521,23.7715287 60.1257521,23.7715287 L69.0857141,35.6533647 C69.0857141,35.6533647 67.1726429,27.7021835 69.0857141,19.8418412 C70.7866082,12.8532831 75.3083704,6.81059125 75.3083704,6.81059125 L61.7995802,15.6269975 C61.7995802,15.6269975 51.5593467,0.305708434 27.8933299,0.305708434 C4.22731319,0.305708434 -1.90549788,12.8867631 1.54762712,21.5117631 Z" id="Path-31" fill="#52D2C3"></path>
                    <circle id="Oval-36" fill="#FFFFFF" cx="15" cy="15" r="9"></circle>
                    <circle id="Oval-36-Copy" fill="#000000" cx="9.53589838" cy="15.7320508" r="2"></circle>
                </g>
           </g>

             <path id="motionPath" d="M1.04403172,75.2487074 C-3.76641393,107.738942 8.12083327,130.031911 35.1657918,130.031911 C62.2107504,130.031911 83.235769,123.728512 112.46875,126.68945 C141.701731,129.650387 170.078644,137.924523 184.173942,124.68945 C236.828125,75.2487074 177.367749,0.248707392 100.538159,0.248707392 C23.7085685,0.248707392 5.85447736,42.758473 1.04403172,75.2487074 Z" fill="#222222" sketch:type="MSShapeGroup"></path>
    
           

              <animateMotion 
                    xlink:href="#fish"
                    dur="2s"
                    begin="0s"
                    fill="freeze"
                    repeatCount="indefinite"
                    rotate="auto-reverse"
                    >
                <mpath xlink:href="#motionPath" />
            </animateMotion>


       <g id="water-cover" sketch:type="MSLayerGroup" transform="translate(0,0)" fill-opacity="0.9" fill="#404D5B">
            <path d="M724.455078,395.753906 C768.519531,395.753906 798.539061,408.705078 846.214843,408.705078 C893.890624,408.705078 949.945311,401.435545 973.767577,408.705078 C997.589843,415.97461 1006.53906,460.722656 1013.20312,475.65625 C1019.86719,490.589844 1018.08227,496.326297 1018.08227,496.326297 L705.9375,496.630252 C705.9375,496.630252 696.914063,469.728515 702.140625,446.08789 C707.367188,422.447265 680.390625,395.753906 724.455078,395.753906 Z" id="Path-101" sketch:type="MSShapeGroup"></path>
        </g>
   

         <ellipse id="ripple" stroke="#506479" stroke-width="2" opacity= "0" stroke-linecap="round" sketch:type="MSShapeGroup" cx="910" cy="406.30497" rx="36" ry="8">
                <animate attributeType="CSS" attributeName="opacity" dur="2s" begin="1.2s" keyTimes="0; .05; .3; 1" values="0; 1; 0; 0;" repeatCount="indefinite"/>
        </ellipse>

         <ellipse id="ripple" stroke="#506479" stroke-width="2" opacity= "0" stroke-linecap="round" sketch:type="MSShapeGroup" cx="910" cy="406.30497" rx="24" ry="4">
                <animate attributeType="CSS" attributeName="opacity" dur="2s" begin="1.1s" keyTimes="0; .05; .3; 1" values="0; 1; 0; 0;" repeatCount="indefinite"/>
         </ellipse>

        <ellipse id="ripple" stroke="#506479" stroke-width="2" opacity= "0" stroke-linecap="round" sketch:type="MSShapeGroup" cx="750" cy="400" rx="46.2999995" ry="10.3833655">
                <animate attributeType="CSS" attributeName="opacity" dur="2s" begin="2.3s" keyTimes="0; .05; .3; 1" values="0; 1; 0; 0;" repeatCount="indefinite"/>
        </ellipse>

         <ellipse id="ripple" stroke="#506479" stroke-width="2" opacity= "0" stroke-linecap="round" sketch:type="MSShapeGroup" cx="750" cy="400" rx="30.8666663" ry="6.92224366">
                <animate attributeType="CSS" attributeName="opacity" dur="2s" begin="2.2s" keyTimes="0; .05; .3; 1" values="0; 1; 0; 0;" repeatCount="indefinite"/>
         </ellipse>

            <path d="M631.965431,465.828704 C688.064994,465.828704 733.542675,455.744961 733.542675,443.306035 C733.542675,430.867109 688.064994,420.783366 631.965431,420.783366 C575.865869,420.783366 530.388188,430.867109 530.388188,443.306035 C530.388188,455.744961 575.865869,465.828704 631.965431,465.828704 Z" id="ripple2" stroke="#445568" stroke-width="2" stroke-linecap="round" sketch:type="MSShapeGroup" >
                <animate attributeType="CSS" attributeName="opacity" dur="2s" begin=".2s" keyTimes="0; .5; 1" values="0; 1; 0;" repeatCount="indefinite"/>
            </path>
            
            <ellipse id="ripple3" stroke="#445568" stroke-width="2" stroke-linecap="round" sketch:type="MSShapeGroup" cx="632.386914" cy="443.715538" rx="121.386914" ry="27.0272023">
                <animate attributeType="CSS" attributeName="opacity" dur="2s" begin=".4s" keyTimes="0; .5; 1" values="0; 1; 0;" repeatCount="indefinite"/>      
            </ellipse>

            <ellipse id="ripple1" stroke="#445568" stroke-width="2" stroke-linecap="round" sketch:type="MSShapeGroup" cx="632.386914" cy="443.715538" rx="80.924609" ry="18.0181349">
                 <animate attributeType="CSS" attributeName="opacity" dur="2s" begin="0s" keyTimes="0; .5; 1" values="0; 1; 0;" repeatCount="indefinite"/>
            </ellipse>

            <path d="M570.738536,442.243193 C570.738536,442.243193 578.082568,415.660041 590.034147,408.336356 C601.985726,401.012672 608.633757,410.718695 626.924797,394.583035 C645.215837,378.447374 664.088201,387.765263 672.576632,394.583035 C681.065063,401.400806 674.523623,420.60021 684.016854,422.947655 C693.510085,425.295099 700.219227,442.243193 700.219227,442.243193 C700.219227,442.243193 678.635545,452.395884 638.034942,452.395884 C597.434338,452.395884 570.738536,442.243193 570.738536,442.243193 Z" id="rock" fill="#273441" sketch:type="MSShapeGroup"></path>

            <g id="frog" transform="translate(627.000000, 345.000000)" sketch:type="MSShapeGroup">
                <ellipse id="Oval-38" fill="#52D2C3" cx="23" cy="18.5" rx="16" ry="10.5"></ellipse>
                <path d="M23,48 C44.519043,48 40.3017561,42.9257812 39,37.5 C37.6234864,31.7626258 31.836556,27 23,27 C14.163444,27 7.32617185,31.2592773 6.21826172,37.5 C5.11035159,43.7407227 1.80273438,48 23,48 Z" id="Oval-38-Copy" fill="#52D2C3"></path>
                <circle id="Oval-39" fill="#52D2C3" cx="15.5" cy="6.5" r="6.5"></circle>
                <circle id="Oval-39-Copy" fill="#52D2C3" cx="29.5" cy="6.5" r="6.5"></circle>
                <circle id="Oval-39-Copy-2" fill="#FFFFFF" cx="29.5" cy="6.5" r="4.5"></circle>
                <circle id="Oval-39-Copy-4" fill="#000000" cx="27.5" cy="6.5" r="1.5"></circle>
                <circle id="Oval-39-Copy-3" fill="#FFFFFF" cx="15.5" cy="6.5" r="4.5"></circle>
                <path d="M13.5,8 C14.3284271,8 15,7.32842712 15,6.5 C15,5.67157288 14.3284271,5 13.5,5 C12.6715729,5 12,5.67157288 12,6.5 C12,7.32842712 12.6715729,8 13.5,8 Z" id="Oval-39-Copy-5" fill="#000000"></path>
                <path d="M13.3422852,16.4072266 C13.3422852,16.4072266 16.1870117,21.3974609 23.3330078,21.3974609 C30.4790039,21.3974609 33.0419922,16.5810547 33.0419922,16.5810547" id="Path-32" stroke="#000000" stroke-linecap="round"></path>
                <path d="M9.42061257,34.6406251 C9.42061257,34.6406251 6.70166039,30.6064453 3.19844451,33.0057844 C-0.304771366,35.4051236 3.80098357,44.2352766 3.80098357,44.2352766 C3.80098357,44.2352766 -0.428996909,44.6644757 0.390827323,45.8754133 C1.21065156,47.086351 4.73584008,49.0620119 6.14746117,49.0620119 C7.55908226,49.0620119 8.86230492,45.8754132 8.86230492,45.8754132 L9.42061257,34.6406251 Z" id="Path-33" fill="#52D2C3"></path>
                <path d="M46.1352272,34.6406251 C46.1352272,34.6406251 43.416275,30.6064453 39.9130591,33.0057844 C36.4098433,35.4051236 40.5155982,44.2352766 40.5155982,44.2352766 C40.5155982,44.2352766 36.2856177,44.6644757 37.105442,45.8754133 C37.9252662,47.086351 41.4504547,49.0620119 42.8620758,49.0620119 C44.2736969,49.0620119 45.5769196,45.8754132 45.5769196,45.8754132 L46.1352272,34.6406251 Z" id="Path-33-Copy" fill="#52D2C3" transform="translate(41.567614, 40.652942) scale(-1, 1) translate(-41.567614, -40.652942) "></path>
                <path d="M16.3217773,37.6806641 L15.578125,50.1103516 L12.6889648,54.3618164 C12.6889648,54.3618164 15.1860352,55.9311523 17.9174805,55.9311523 C20.6489258,55.9311523 21.4741211,55.203125 21.4741211,55.203125 L18.9165039,49.6157227 L19.090332,36.8500977 L16.3217773,37.6806641 Z" id="Path-35" fill="#52D2C3"></path>
                <path d="M26.3217773,37.6806641 L25.578125,50.1103516 L22.6889648,54.3618164 C22.6889648,54.3618164 25.1860352,55.9311523 27.9174805,55.9311523 C30.6489258,55.9311523 31.4741211,55.203125 31.4741211,55.203125 L28.9165039,49.6157227 L29.090332,36.8500977 L26.3217773,37.6806641 Z" id="Path-35-Copy" fill="#52D2C3"></path>
            </g>
            <g id="fence" transform="translate(973.000000, 275.000000)" sketch:type="MSShapeGroup">
                <path d="M7.24017464,26.8561848 L57.2167371,11.4362629 L57.5643934,17.1061848 L8.62884652,31.3542316 L7.24017464,26.8561848 Z" id="Path-47" fill="#2F2D41"></path>
                <path d="M7.24017464,37.8561848 L57.2167371,22.4362629 L57.5643934,28.1061848 L8.62884652,42.3542316 L7.24017464,37.8561848 Z" id="Path-47-Copy" fill="#2F2D41"></path>
                <path d="M63.2445708,9.83718831 L117.700906,16.200939 L115.822398,21.5631381 L62.8327782,14.5488926 L63.2445708,9.83718831 Z" id="Path-47-Copy-3" fill="#2F2D41"></path>
                <path d="M63.2445708,20.8371883 L117.700906,27.200939 L115.822398,32.5631381 L62.8327782,25.5488926 L63.2445708,20.8371883 Z" id="Path-47-Copy-2" fill="#2F2D41"></path>
                <path d="M121.844589,17.5748004 L181.955904,26.3389477 L180.116734,31.7178448 L121.589928,22.3532032 L121.844589,17.5748004 Z" id="Path-47-Copy-5" fill="#2F2D41" transform="translate(151.772916, 24.646323) rotate(-5.000000) translate(-151.772916, -24.646323) "></path>
                <path d="M120.844589,27.5748004 L180.955904,36.3389477 L179.116734,41.7178448 L120.589928,32.3532032 L120.844589,27.5748004 Z" id="Path-47-Copy-4" fill="#2F2D41"></path>
                <path d="M182.945831,23.9414597 L232.651141,28.7437066 L231.747394,32.6227287 L183.261437,27.3542554 L182.945831,23.9414597 Z" id="Path-47-Copy-7" fill="#2F2D41"></path>
                <path d="M182.819769,30.084331 L235.468057,40.7075747 L234.25437,44.5035536 L182.935391,33.5535258 L182.819769,30.084331 Z" id="Path-47-Copy-6" fill="#2F2D41" transform="translate(209.201724, 37.293942) rotate(-6.000000) translate(-209.201724, -37.293942) "></path>
                <path d="M7.88826909,56.7915856 L0,22.3691026 L7.88826909,19.3021644 L12.0234375,56.7915856 L7.88826909,56.7915856 Z" id="Path-42" fill="#3F3D57"></path>
                <path d="M60.9060101,48.5190492 L51.0627875,5.56562582 L60.9060101,1.73860683 L66.0659993,48.5190492 L60.9060101,48.5190492 Z" id="Path-42-Copy" fill="#3F3D57" transform="translate(58.564393, 25.128828) rotate(12.000000) translate(-58.564393, -25.128828) "></path>
                <path d="M120.140838,47.8938437 L110.297616,4.94042038 L120.140838,1.11340138 L125.300828,47.8938437 L120.140838,47.8938437 Z" id="Path-42-Copy-2" fill="#3F3D57" transform="translate(117.799222, 24.503623) rotate(22.000000) translate(-117.799222, -24.503623) "></path>
                <path d="M181.22409,52.5413728 L172.926114,16.3310293 L181.22409,13.1047981 L185.574034,52.5413728 L181.22409,52.5413728 Z" id="Path-42-Copy-3" fill="#3F3D57" transform="translate(179.250074, 32.823085) rotate(22.000000) translate(-179.250074, -32.823085) "></path>
                <path d="M235.706433,48.4699164 L230.088348,23.9539591 L235.706433,21.7696621 L238.651532,48.4699164 L235.706433,48.4699164 Z" id="Path-42-Copy-4" fill="#3F3D57" transform="translate(234.369940, 35.119789) rotate(6.000000) translate(-234.369940, -35.119789) "></path>
            </g>
            <g id="skunk" transform="translate(1116.000000, 310.000000)" sketch:type="MSShapeGroup">
                <path d="M77.1957728,126.402398 C77.1957728,126.402398 80.6654994,128.693901 80.6654994,132.29937 C80.6654994,135.904839 80.5297572,141.155327 77.1469447,142.241265 C73.7641322,143.327202 72.8730189,144.977593 75.5448939,145.667534 C78.2167689,146.357476 81.2143273,145.444878 83.1200892,143.446831 C85.0258512,141.448784 87.0029017,129.628472 87.0029017,129.628472 L77.1957728,126.402398 Z" id="Path-39" fill="#389086" transform="translate(80.491603, 136.149080) scale(-1, 1) translate(-80.491603, -136.149080) "></path>
                <path d="M34.2064165,126.402398 C34.2064165,126.402398 37.6761431,128.693901 37.6761431,132.29937 C37.6761431,135.904839 37.5404009,141.155327 34.1575884,142.241265 C30.7747759,143.327202 29.8836626,144.977593 32.5555376,145.667534 C35.2274126,146.357476 38.224971,145.444878 40.130733,143.446831 C42.0364949,141.448784 44.0135455,129.628472 44.0135455,129.628472 L34.2064165,126.402398 Z" id="Path-39-Copy" fill="#389086" transform="translate(37.502246, 136.149080) scale(-1, 1) translate(-37.502246, -136.149080) "></path>
                <path d="M21.2973157,149.694824 C20.5365735,150.591309 25.7055188,151.237793 27.5683118,150.466309 C29.4311047,149.694824 36.8393097,134.928802 36.8393097,134.928802 C36.8393097,134.928802 39.9805948,130.811432 51.2694836,128.757813 C62.5583725,126.704193 70.6332533,136.502441 70.6332532,139.792969 C70.6332531,143.083496 70.2968275,143.914551 68.5263196,144.64209 C66.7558117,145.369629 64.0399915,145.814941 65.153761,147.357422 C66.2675304,148.899903 69.9862806,148.986816 72.5224133,147.303223 C75.058546,145.619629 76.9701673,143.583008 76.9701672,139.847656 C76.9701671,136.112305 74.1947767,135.297363 74.9335461,129.737305 C75.6723156,124.177246 77.4535638,128.000885 80.3583508,114.848633 C83.2631378,101.696381 80.3583528,92.019043 80.3583527,89.9824219 C80.3583526,87.9458008 102.028923,81.5385742 99.1840344,62.8203125 C96.3391458,44.1020508 68.5263158,49.9493103 70.6332494,30.5762634 C72.7401829,11.2032166 83.263136,0 83.263136,0 C83.263136,0 74.0272924,0.0396414051 63.3847142,6.59872344 C52.742136,13.1578055 27.2403088,34.6280222 41.5731946,53.3642578 C55.9060803,72.1004934 70.1718236,70.5102539 75.2650853,77.6401367 C80.358347,84.7700195 75.2650891,85.7202148 75.2650891,85.7202148 C75.2650891,85.7202148 60.5341322,82.2504911 51.8139172,84.7700195 C43.0937023,87.2895479 30.4965344,89.9824219 30.4965344,89.9824219 C30.4965344,89.9824219 35.2753431,83.7431669 36.8393078,81.5385742 C38.4032726,79.3339815 38.5645638,75.5600538 34.8868294,75.5600586 C31.2090949,75.5600634 30.1703625,76.732913 26.6142102,75.5600586 C23.0580579,74.3872042 20.9784681,73.1713896 18.1654797,73.7792969 C15.3524914,74.3872042 12.1435071,76.0761719 12.1435071,76.0761719 L11.6273938,72.4707031 C11.6273938,72.4707031 9.71626097,72.9106474 7.37592894,77.6401367 C5.03559691,82.3696261 -1.09752887,94.3710022 0.170850819,103.712402 C1.43923051,113.053802 7.4499731,123.147555 14.3513403,126.704193 C21.2527075,130.260831 25.5030041,135.826266 27.2403088,138.335052 C28.9776135,140.843839 28.1475716,143.812103 27.2403088,145.783813 C26.3330461,147.755524 22.0580578,148.79834 21.2973157,149.694824 Z" id="Path-38" fill="#52D2C3" transform="translate(49.720745, 75.404899) scale(-1, 1) translate(-49.720745, -75.404899) "></path>
                <ellipse id="Oval-36-Copy-3" fill="#FFFFFF" cx="78.5492884" cy="76.6123954" rx="6.5" ry="6.5"></ellipse>
                <circle id="Oval-36-Copy-2" fill="#000000" cx="75.0492884" cy="77.1123954" r="2"></circle>
                <path d="M33.3165728,39.0928642 C35.6515338,49.3780204 54.9191126,59.9551689 54.9191126,59.9551689 C54.9191126,59.9551689 42.3321976,45.5782158 42.3321976,36.2491142 C42.3321976,26.9200126 49.0196976,16.363372 49.0196976,16.363372 C49.0196976,16.363372 30.9816119,28.8077079 33.3165728,39.0928642 Z" id="Path-41" fill="#FFFFFF" transform="translate(44.013545, 38.159270) scale(-1, 1) translate(-44.013545, -38.159270) "></path>
                <circle id="nose" fill="#389086" cx="61.0492884" cy="76.1123954" r="3"></circle>
            </g>
        </g>
    </g>
    <clipPath id="cut-off-bottom">
        <rect width="20" height="20" x="310" y="370" fill="#52D2C3">
            <animate attributeName="height" dur="4s" begin="0s" keyTimes="0; 0.02; 0.04; 1" values="0; 20; 0; 0" repeatCount="indefinite"/>
        </rect>
    </clipPath>
    <circle cx="320" cy="380" r="10" clip-path="url(#cut-off-bottom)" fill="#52D2C3"/>
    
    <clipPath id="circle2">
        <rect width="12" height="12" x="636" y="345" fill="#52D2C3">
            <animate attributeName="height" dur="2s" begin="0s" keyTimes="0; 0.05; 0.1; 1" values="0; 12; 0; 0" repeatCount="indefinite"/>
        </rect>
    </clipPath>
    <circle cx="642" cy="351" r="6" clip-path="url(#circle2)" fill="#52D2C3"/>

    <clipPath id="circle3">
        <rect width="12" height="12" x="650" y="345" fill="#52D2C3">
            <animate attributeName="height" dur="2s" begin="0s" keyTimes="0; 0.05; 0.1; 1" values="0; 12; 0; 0" repeatCount="indefinite"/>
        </rect>
    </clipPath>
    <circle cx="656" cy="351" r="6" clip-path="url(#circle3)" fill="#52D2C3"/>



    <clipPath id="circle5">
        <rect width="13" height="0" x="1188" y="380" fill="#52D2C3">
            <animate attributeName="height" dur="2s" begin="2s" keyTimes="0; 0.05; 0.1; 1" values="0; 13; 0; 0" repeatCount="indefinite"/>
        </rect>
    </clipPath>
    <circle cx="1194.5" cy="386.5" r="6.5" clip-path="url(#circle5)" fill="#52D2C3"/>
   
</svg>