<?xml version="1.0" encoding="UTF-8" standalone="no"?>
<svg width="111px" height="53px" viewBox="0 0 111 53" version="1.1" xmlns="http://www.w3.org/2000/svg" xmlns:xlink="http://www.w3.org/1999/xlink" xmlns:sketch="http://www.bohemiancoding.com/sketch/ns">
    <!-- Generator: Sketch 3.3.3 (12081) - http://www.bohemiancoding.com/sketch -->
    <title>happy-turtle</title>
    <desc>Created with Sketch.</desc>
    <defs></defs>
    <g id="Page-1" stroke="none" stroke-width="1" fill="none" fill-rule="evenodd" sketch:type="MSPage">
        <g id="happy-turtle" sketch:type="MSLayerGroup">
            <g id="happy-turtle-g" sketch:type="MSShapeGroup">
                <g id="Shape_18_1_" transform="translate(59.135954, 31.089319)" fill="#389086">
                    <g id="Shape_18">
                        <path d="M7.00294192,1.19175726 L0,0.155446599 L2.07494575,14.974689 C2.07494575,14.974689 8.19603572,15.2855822 10.634097,14.6637958 C13.0721583,14.0420094 14.420873,12.539359 14.420873,12.539359 L7.00294192,1.19175726 L7.00294192,1.19175726 Z" id="Shape"></path>
                    </g>
                </g>
                <g id="Shape_18_copy_1_" transform="translate(19.193248, 34.716407)" fill="#389086">
                    <g id="Shape_18_copy">
                        <path d="M9.64849775,3.62708731 L3.52740778,0.103631066 L0.155620932,14.6637958 C0.155620932,14.6637958 5.75797447,17.202757 8.24790936,17.5136501 C10.7378443,17.8245433 12.5534218,16.9436793 12.5534218,16.9436793 L9.64849775,3.62708731 L9.64849775,3.62708731 Z" id="Shape"></path>
                    </g>
                </g>
                <g id="Shape_3_1_" fill="#52D2C3">
                    <g id="Shape_3">
                        <path d="M110.905851,13.7311162 C109.972125,1.91717472 98.3524286,-1.65809706 89.6895299,1.50265046 C82.5309671,4.14524264 78.6404444,20.0007957 76.1505091,25.182349 C73.6605744,30.3639023 68.3694626,29.3275916 68.3694626,29.3275916 C68.3694626,29.3275916 59.6028167,22.9024655 50.3693082,20.41532 C41.1357995,17.9281744 23.4987606,22.9542811 18.1557753,25.9077665 C12.8646637,28.8612518 6.48420548,35.6490867 6.48420548,35.6490867 C6.48420548,35.6490867 6.17296362,36.3745042 3.63115507,35.9599799 C1.86745118,35.6490867 0.570610082,33.9909896 0.570610082,33.9909896 C0.570610082,33.9909896 -1.08934652,36.5817663 1.60808296,38.4471254 C6.17296362,41.5560575 10.1672342,37.5662614 10.1672342,37.5662614 L7.26231015,48.7066009 C7.26231015,48.7066009 11.360328,52.4891349 15.4583459,52.9036591 C19.0895009,53.2663678 21.9425513,52.0746106 21.994425,52.3336883 L23.2912661,36.7890284 C23.2912661,36.7890284 29.7235979,41.4524264 38.0233809,40.4161157 C46.9975213,39.3279895 52.3923802,34.4055139 52.3923802,34.4055139 L52.2886329,50.4165136 C52.2886329,50.4165136 56.6978927,52.2300572 61.5740152,51.1937466 C67.4876106,49.9501738 68.2657153,47.9811835 68.1100943,47.6702903 C67.2801161,45.6494845 61.9371307,32.3328926 61.9371307,32.3328926 C62.4558672,32.7474168 77.084235,38.3953099 85.2802707,26.8404461 C87.6664583,23.5242519 87.8220788,22.0734171 87.7183318,21.5552617 C87.6664583,21.3998151 87.6145841,21.2961841 87.6145841,21.2961841 C87.6145841,21.2961841 87.6664583,21.3479996 87.7183318,21.5552617 C87.9258265,22.1770481 88.652057,23.8351451 90.2082664,25.4414267 C95.862494,31.0893198 111.891449,26.4259218 110.905851,13.7311162 L110.905851,13.7311162 L110.905851,13.7311162 Z" id="Shape"></path>
                    </g>
                </g>
                <g id="Shape_1_1_" transform="translate(6.743574, 2.590777)" fill="#DECBAC">
                    <g id="Shape_1">
                        <path d="M29.2048615,0.362708731 C-6.12108997,3.9379805 0.622483726,30.1048246 0.622483726,30.1048246 C0.622483726,30.1048246 14.3689994,21.969786 30.6573235,20.2080579 C46.893774,18.4463297 61.5740152,24.4569315 61.5740152,24.4569315 C61.5740152,24.4569315 64.8939284,-3.26437857 29.2048615,0.362708731 L29.2048615,0.362708731 L29.2048615,0.362708731 Z" id="Shape"></path>
                    </g>
                </g>
                <g id="Shape_2_1_" transform="translate(6.743574, 20.208058)" fill="#FFF1DB">
                    <g id="Shape_2">
                        <path d="M61.5740152,6.83965035 C61.5740152,6.83965035 46.4787849,-1.91717472 28.7898723,0.621786395 C13.6427683,2.74622325 0.518736438,12.1766503 0.518736438,12.1766503 L0.207494575,15.0265046 C0.207494575,15.0265046 12.9165373,6.47694162 29.6717243,4.50795137 C42.2251461,2.74622325 61.7815098,9.11953381 61.7815098,9.11953381 L61.5740152,6.83965035 L61.5740152,6.83965035 Z" id="Shape"></path>
                    </g>
                </g>
                <g id="Shape_4_1_" transform="translate(54.986062, 13.472039)" fill="#BFAE94">
                    <g id="Shape_4">
                        <path d="M7.62542568,2.79803878 C7.3141838,1.76172812 7.00294192,2.59077665 3.99427057,0.880864062 C0.933725587,-0.829048524 0.518736438,3.67890284 0.414989151,5.23336883 C0.311241863,6.83965035 10.1153606,9.94858231 10.1153606,9.94858231 C10.1153606,9.94858231 7.88479384,3.83434943 7.62542568,2.79803878 L7.62542568,2.79803878 L7.62542568,2.79803878 Z" id="Shape"></path>
                    </g>
                </g>
                <g id="Shape_5_1_" transform="translate(43.573861, 12.953883)" fill="#BFAE94">
                    <g id="Shape_5">
                        <path d="M4.35738608,0.207262132 C2.23056668,8.74300632e-16 0.570610082,-0.103631066 0.414989151,1.19175726 C0.259368219,2.48714558 0.311241863,5.75152416 0.311241863,5.75152416 L10.1153606,5.90697075 C10.1153606,5.90697075 10.1153606,2.33169898 10.2191079,1.34720385 C10.3228552,0.310893198 6.48420548,0.414524264 4.35738608,0.207262132 L4.35738608,0.207262132 L4.35738608,0.207262132 Z" id="Shape"></path>
                    </g>
                </g>
                <g id="Shape_6_1_" transform="translate(30.086714, 13.472039)" fill="#BFAE94">
                    <g id="Shape_6">
                        <path d="M11.5678226,0.362708731 C11.3084544,-0.414524264 2.80117677,0.51815533 1.24496745,0.829048524 C-0.259368219,1.13994173 0.985599233,4.19705817 1.14122017,5.38881542 C1.2968411,6.58057269 11.4640753,4.92247563 11.4640753,4.92247563 C11.4640753,4.92247563 11.8271908,1.13994173 11.5678226,0.362708731 L11.5678226,0.362708731 L11.5678226,0.362708731 Z" id="Shape"></path>
                    </g>
                </g>
                <g id="Shape_7_1_" transform="translate(19.711985, 15.026505)" fill="#BFAE94">
                    <g id="Shape_7">
                        <path d="M8.29978301,0.207262132 C8.29978301,0.207262132 2.74930312,0.362708731 1.08934652,2.64259218 C-0.570610082,4.92247563 0.985599233,7.20235906 0.985599233,7.20235906 L8.76664583,4.7152135 L8.29978301,0.207262132 L8.29978301,0.207262132 Z" id="Shape"></path>
                    </g>
                </g>
                <g id="Shape_8_1_" transform="translate(10.374729, 18.135437)" fill="#BFAE94">
                    <g id="Shape_8">
                        <path d="M2.23056668,3.7825339 C-0.103747288,6.11423289 0.518736438,9.63768911 0.518736438,9.63768911 L7.57355203,5.49244649 L7.62542568,0.362708731 C7.62542568,0.362708731 4.51300701,1.45083492 2.23056668,3.7825339 L2.23056668,3.7825339 L2.23056668,3.7825339 Z" id="Shape"></path>
                    </g>
                </g>
                <g id="Shape_9_1_" transform="translate(50.317434, 6.217864)" fill="#BFAE94">
                    <g id="Shape_9">
                        <path d="M6.95106827,2.59077665 C6.06921633,1.81354365 2.4899349,-0.103631066 0.985599233,0.362708731 C-0.518736438,0.829048524 0.933725587,5.49244649 0.933725587,5.49244649 L10.6859706,6.37331055 C10.634097,6.37331055 7.78104655,3.36800964 6.95106827,2.59077665 L6.95106827,2.59077665 L6.95106827,2.59077665 Z" id="Shape"></path>
                    </g>
                </g>
                <g id="Shape_10_1_" transform="translate(38.905233, 3.108932)" fill="#BFAE94">
                    <g id="Shape_10">
                        <path d="M9.44100316,3.16074751 C9.5966241,1.96899025 4.35738608,0.466339797 2.85305041,0.414524264 C1.2968411,0.362708731 -0.0518736438,7.15054355 0.207494575,8.08322314 C0.414989151,9.01590272 9.33725587,10.0522134 9.44100316,8.29048524 C9.54475045,6.52875715 9.33725587,4.35250476 9.44100316,3.16074751 L9.44100316,3.16074751 L9.44100316,3.16074751 Z" id="Shape"></path>
                    </g>
                </g>
                <g id="Shape_11_1_" transform="translate(29.567977, 3.627087)" fill="#BFAE94">
                    <g id="Shape_11">
                        <path d="M1.91932482,0.362708731 C1.03747288,0.725417464 0.466862794,8.49774742 0.466862794,8.49774742 L7.93666748,8.29048524 C7.93666748,8.29048524 8.87039312,2.33169898 8.97414041,1.34720385 C9.02601399,0.362708731 2.74930312,0.051815533 1.91932482,0.362708731 L1.91932482,0.362708731 L1.91932482,0.362708731 Z" id="Shape"></path>
                    </g>
                </g>
                <g id="Shape_12_1_" transform="translate(21.268194, 5.699709)" fill="#BFAE94">
                    <g id="Shape_12">
                        <path d="M7.05481556,7.20235906 C6.79544734,5.59607756 6.79544734,1.60628152 6.95106827,0.362708731 C7.05481556,-0.880864062 0.622483726,2.48714558 0.363115507,3.31619411 C0.103747288,4.14524264 1.50433567,8.91227163 1.50433567,8.91227163 C1.50433567,8.91227163 7.3141838,8.80864062 7.05481556,7.20235906 L7.05481556,7.20235906 L7.05481556,7.20235906 Z" id="Shape"></path>
                    </g>
                </g>
                <g id="Shape_13_1_" transform="translate(11.930938, 10.363107)" fill="#BFAE94">
                    <g id="Shape_13">
                        <path d="M7.05481556,0.103631066 C7.05481556,0.103631066 2.74930312,4.0934271 2.17869304,4.81884456 C1.60808296,5.54426203 -0.0518736438,9.7413202 0.414989151,9.43042701 C0.881851947,9.11953381 8.61102489,4.50795137 8.61102489,4.50795137 L7.05481556,0.103631066 L7.05481556,0.103631066 Z" id="Shape"></path>
                    </g>
                </g>
                <g id="Ellipse_1_1_" transform="translate(94.084159, 6.411309)" fill="#F4FFFD">
                    <g id="Ellipse_1">
                        <path d="M6.79879513,12.4642003 C10.1330436,12.1247209 12.560475,9.14960396 12.220615,5.81909064 C11.8807549,2.48857729 8.90230141,0.0638651523 5.56805291,0.4033445 C2.2338044,0.74282384 -0.193627039,3.71794075 0.146233029,7.04845408 C0.486093103,10.3789674 3.46454659,12.8036796 6.79879513,12.4642003 L6.79879513,12.4642003 L6.79879513,12.4642003 Z" id="Oval"></path>
                    </g>
                </g>
                <g id="Shape_21_1_" transform="translate(85.072776, 15.026505)" fill="#205851">
                    <g id="Shape_21" transform="translate(0.518736, 1.036311)">
                        <path d="M1.55620932,0 C1.55620932,0 0.259368219,1.81354365 0.518736438,3.62708731 C0.778104655,5.44063096 2.1268194,6.26967948 2.1268194,6.26967948 L2.17869304,5.44063096 C2.17869304,5.44063096 2.1268194,5.28518436 1.55620932,4.0934271 C0.933725587,2.79803878 1.55620932,0 1.55620932,0 L1.55620932,0 L1.55620932,0 Z" id="Shape"></path>
                    </g>
                    <path d="M1.60808296,0.414524264 C-0.363115507,1.19175726 0.0518736438,1.96899025 0.0518736438,1.96899025 L3.68302871,0.414524264 C3.68302871,0.414524264 3.52740778,-0.362708731 1.60808296,0.414524264 L1.60808296,0.414524264 L1.60808296,0.414524264 Z" id="Shape"></path>
                </g>
            </g>
            <g class="eye-pupil"><path d="M104.017246,15.1171954 C104.957675,15.0214448 105.642335,14.1823092 105.546477,13.2429337 C105.450619,12.3035581 104.610542,11.6196649 103.670113,11.7154155 C102.729684,11.8111661 102.045024,12.6503016 102.140882,13.5896772 C102.23674,14.5290528 103.076817,15.2129459 104.017246,15.1171954 L104.017246,15.1171954 L104.017246,15.1171954 Z" id="pupil" fill="#1B1B25" sketch:type="MSShapeGroup"></path></g>
        </g>
    </g>
</svg>