<?xml version="1.0" encoding="utf-8"?>
<!-- Generator: Adobe Illustrator 19.0.0, SVG Export Plug-In . SVG Version: 6.00 Build 0)  -->
<svg version="1.1" id="Layer_1" xmlns="http://www.w3.org/2000/svg" xmlns:xlink="http://www.w3.org/1999/xlink" x="0px" y="0px"
	 viewBox="0 0 311.8 89.2" enable-background="new 0 0 311.8 89.2" xml:space="preserve">
<g>
	<path fill="#FFFFFF" d="M118.7,19.4H89.5V79h28.6c18.5-0.2,31.2-13.2,31.2-29.9C149.3,32.6,136.9,19.9,118.7,19.4z M118.2,68.8
		L118.2,68.8l-17.9,0V29.7h18.1c11.7,0.3,19.4,8.5,19.4,19.6C137.7,60.5,130,68.6,118.2,68.8z"/>
	<polygon fill="#FFFFFF" points="73.8,29.9 73.8,19.4 14.2,19.4 14.2,29.9 38.6,29.9 38.6,68.6 14.2,68.6 14.2,79 73.8,79 
		73.8,68.6 49.4,68.6 49.4,29.9 	"/>
	<polygon fill="#FFFFFF" points="222.5,29.8 222.5,19.4 162.4,19.4 162.4,79 222.5,79 222.5,68.6 173.2,68.6 173.2,54.4 211.7,54.4 
		211.7,44 173.2,44 173.2,29.8 	"/>
	<path fill="#FFFFFF" d="M264.9,16.8c-18.1,0-32.8,14.5-32.8,32.4c0,17.9,14.7,32.4,32.8,32.4c18.1,0,32.8-14.5,32.8-32.4
		C297.6,31.3,283,16.8,264.9,16.8z M264.9,70.5c-11.8,0-21.5-9.5-21.5-21.2c0-11.7,9.6-21.2,21.5-21.2c11.8,0,21.5,9.5,21.5,21.2
		C286.3,60.9,276.7,70.5,264.9,70.5z"/>
</g>
</svg>
