<?xml version="1.0" encoding="UTF-8" standalone="no"?>
<svg width="370px" height="576px" viewBox="0 0 370 576" version="1.1" xmlns="http://www.w3.org/2000/svg" xmlns:xlink="http://www.w3.org/1999/xlink" xmlns:sketch="http://www.bohemiancoding.com/sketch/ns">
    <!-- Generator: Sketch 3.3.3 (12072) - http://www.bohemiancoding.com/sketch -->
    <title>naked-turtle</title>
    <desc>Created with Sketch.</desc>
    <defs></defs>
    <g id="Page-1" stroke="none" stroke-width="1" fill="none" fill-rule="evenodd" sketch:type="MSPage">
        <g id="naked-turtle" sketch:type="MSLayerGroup">
            <ellipse id="Oval-125" fill="#000000" sketch:type="MSShapeGroup" cx="190.5" cy="524" rx="179.5" ry="52"></ellipse>
            <path d="M144.035156,156.768671 C126.3125,181.883519 93.8632813,194.699211 93.8632812,278.259528 C93.863281,361.819846 145.328125,399.724 204.363281,399.724 C263.398437,399.724 292.597663,330.907302 292.597663,274.374717 C292.597663,217.842131 234.505425,147.082431 216.144531,147.082431 C197.783637,147.082431 161.757812,131.653822 144.035156,156.768671 Z" id="Path-152" fill="#4DD2C3" sketch:type="MSShapeGroup"></path>
            <circle id="Oval-120" fill="#4DD2C3" sketch:type="MSShapeGroup" cx="189.023438" cy="87.724" r="87"></circle>
            <ellipse id="Oval-39-Copy-7" fill="#FFFFFF" sketch:type="MSShapeGroup" cx="225.523438" cy="87.724" rx="35.5" ry="36"></ellipse>
            <ellipse id="Oval-39-Copy-8" fill="#FFFFFF" sketch:type="MSShapeGroup" cx="152.523438" cy="87.724" rx="35.5" ry="36"></ellipse>
            <ellipse id="Oval-39-Copy-6" fill="#000000" sketch:type="MSShapeGroup" cx="245.523437" cy="94.224" rx="9.36805556" ry="9.5"></ellipse>
            <ellipse id="Oval-39-Copy-9" fill="#000000" sketch:type="MSShapeGroup" cx="170.523437" cy="94.224" rx="9.36805556" ry="9.5"></ellipse>
            <path d="M136.052734,372.700563 L99.9785156,503.687501 C99.9785156,503.687501 109.462891,514.00525 136.052734,519.349 C162.642578,524.69275 179.017578,515.091188 179.017578,515.091188 L190.830078,377.259156 L136.052734,372.700563 Z" id="Path-154" fill="#4DD2C3" sketch:type="MSShapeGroup"></path>
            <path d="M230.3125,375.448 L193.230472,514.587893 C193.230472,514.587893 204.351566,527.271486 230.3125,527.271486 C256.273434,527.271486 273.277344,517.838625 273.277344,517.838625 L285.089844,380.006594 L230.3125,375.448 Z" id="Path-154-Copy" fill="#4DD2C3" sketch:type="MSShapeGroup" transform="translate(239.160158, 451.359743) scale(-1, 1) translate(-239.160158, -451.359743) "></path>
            <path d="M25.796875,181.153688 C25.796875,181.153688 113.058594,207.266969 194.027344,213.173219 C274.996094,219.079469 359.316406,178.94275 359.316406,178.94275 L359.316406,433.884156 C359.316406,433.884156 332.019531,411.946656 310.949219,411.946656 C289.878906,411.946656 283.453125,433.884156 257.738281,433.884156 C232.023438,433.884156 230.632813,417.028688 212.519531,417.028688 C194.40625,417.028688 194.027344,436.884156 173.820312,437.884156 C153.613281,438.884156 132.203125,426.63025 113.828125,433.884156 C95.453125,441.138063 80.859375,425.239625 56.0585938,417.028688 C31.2578125,408.81775 0.5,425.239625 0.5,425.239625 L25.796875,181.153688 Z" id="Path-157" fill="#FFFFFF" sketch:type="MSShapeGroup"></path>
            <path d="M23.7031253,214.958375 C40.6445315,214.958375 86.042965,206.489624 86.042965,196.415406 C86.042965,186.341187 75.1796857,152.407594 42.2070314,157.579469 C9.23437706,162.751344 6.76171903,214.958375 23.7031253,214.958375 Z" id="Path-158" fill="#4DD2C3" sketch:type="MSShapeGroup"></path>
            <path d="M308.86758,218.440515 C325.808987,218.440515 371.20742,209.971765 371.20742,199.897546 C371.20742,189.823327 360.344141,155.889734 327.371486,161.061609 C294.398832,166.233484 291.926174,218.440515 308.86758,218.440515 Z" id="Path-158-Copy" fill="#4DD2C3" sketch:type="MSShapeGroup" transform="translate(334.884700, 189.484642) rotate(21.000000) translate(-334.884700, -189.484642) "></path>
            <path d="M62.4013672,401.893562 C58.64612,400.63088 50.2382812,400.078125 50.2382812,400.078125 C50.2382812,400.078125 63.3984375,272.453125 72.4335938,251.730469 C81.46875,231.007812 86.25,238.042969 86.25,248.6875 C86.25,259.332031 74.390625,408.199219 74.390625,408.199219 C74.390625,408.199219 66.6969013,403.337911 62.4013672,401.893562 Z" id="Path-157" fill="#F1F1F1" sketch:type="MSShapeGroup"></path>
            <path d="M212.930401,401.019248 C208.869489,399.808342 200.359673,399.974397 200.359673,399.974397 C200.359673,399.974397 214.042471,288.800568 223.077628,270.70584 C232.112784,252.611111 236.894034,258.754109 236.894034,268.048763 C236.894034,277.343416 225.034659,407.332126 225.034659,407.332126 C225.034659,407.332126 217.094484,402.260918 212.930401,401.019248 Z" id="Path-157-Copy-2" fill="#F1F1F1" sketch:type="MSShapeGroup" transform="translate(218.626853, 333.198736) rotate(-6.000000) translate(-218.626853, -333.198736) "></path>
            <path d="M145.504611,421.271325 C140.782011,421.593048 131.018895,420.226039 131.018895,420.226039 C131.018895,420.226039 147.182413,280.949797 156.217569,260.22714 C165.252725,239.504484 170.033976,249.582609 170.033976,260.22714 C170.033976,270.871671 160.195657,418.238401 160.195657,418.238401 C160.195657,418.238401 150.507598,420.930501 145.504611,421.271325 Z" id="Path-157-Copy" fill="#F1F1F1" sketch:type="MSShapeGroup" transform="translate(150.526435, 334.747658) scale(-1, 1) rotate(-6.000000) translate(-150.526435, -334.747658) "></path>
            <path d="M291.555545,395.158647 C285.097805,393.934251 277.896942,395.158651 277.896942,395.158651 C277.896942,395.158651 293.224232,263.838583 302.259389,243.115927 C311.294545,222.393271 316.075795,232.471396 316.075795,243.115927 C316.075795,253.760458 306.237476,401.127187 306.237476,401.127187 C306.237476,401.127187 298.013285,396.383043 291.555545,395.158647 Z" id="Path-157-Copy-3" fill="#F1F1F1" sketch:type="MSShapeGroup" transform="translate(296.986369, 316.095470) scale(-1, 1) rotate(-1.000000) translate(-296.986369, -316.095470) "></path>
        </g>
    </g>
</svg>