<?xml version="1.0" encoding="UTF-8" standalone="no"?>
<svg width="107px" height="126px" viewBox="0 0 107 126" version="1.1" xmlns="http://www.w3.org/2000/svg" xmlns:xlink="http://www.w3.org/1999/xlink" xmlns:sketch="http://www.bohemiancoding.com/sketch/ns">
    <!-- Generator: Sketch 3.3.2 (12043) - http://www.bohemiancoding.com/sketch -->
    <title>skunk</title>
    <desc>Created with Sketch.</desc>
    <defs></defs>
    <g id="Page-1" stroke="none" stroke-width="1" fill="none" fill-rule="evenodd" sketch:type="MSPage">
        <g id="skunk" sketch:type="MSLayerGroup" transform="translate(53.500000, 63.500000) scale(-1, 1) translate(-53.500000, -63.500000) ">
            <path d="M53.1808714,110.249162 C53.4305069,113.537017 54.4858399,122.108446 57.6403809,122.045898 C60.794922,121.98335 60.1816407,126 60.1816407,126 L53.1808716,126 L43.6098634,107.827881 L53.8063267,102.822391 C53.8063267,102.822391 52.9312358,106.961308 53.1808714,110.249162 Z" id="Path-39-Copy" fill="#389086" sketch:type="MSShapeGroup"></path>
            <path d="M35.4451198,81.4699738 C42.1965451,85.1587121 38.2154082,94.4557801 51.1868055,103.215625 C64.1582029,111.975469 70.1412414,114.733221 70.1412413,117.814594 C70.1412412,120.895967 69.2745073,122.146241 66.4456537,122.534425 C63.6168001,122.922608 64.0809114,126.000001 64.0809114,126.000001 L72.3399408,126.000001 C72.3399408,126.000001 76.0350257,121.363729 76.0350256,117.865805 C76.0350255,114.367882 73.4537135,113.60474 74.140822,108.398093 C74.8279305,103.191446 76.4846191,106.772045 79.1862791,94.4557826 C81.8879392,82.1395205 79.186281,74.2038823 79.1862809,72.2967139 C79.1862808,70.3895456 100.661487,70.2969964 103.909892,53.5902722 C107.158297,36.883548 90.3600549,40.8574124 91.2712084,27.7198782 C92.182362,14.5823439 106.895878,14.5110447 106.875744,14.5113819 C106.312059,14.5208219 96.3203323,-1.58353654 80.4611815,1.26005257 C64.6020307,4.10364167 49.8459566,22.2236397 63.1765675,39.7689533 C76.5071785,57.3142668 75.7240831,52.3591064 80.4611815,59.035796 C85.1982799,65.7124856 75.3288791,68.3158173 75.3288791,68.3158173 C75.3288791,68.3158173 67.7447663,69.8923182 53.7128185,64.4640578 C39.6808706,59.0357973 44.3121991,31.0064987 44.3121991,31.0064987 L40.3598875,35.2757174 C40.3598875,35.2757174 33.3539535,34.5002523 28.6936944,35.2757184 C24.0334354,36.0511845 16.7750445,41.3752416 13.6256916,42.7260748 C10.4763386,44.076908 11.3868572,45.7333229 13.6256916,46.5861445 C15.8645259,47.438966 21.1517561,50.72239 23.320111,52.7630231 C25.4884659,54.8036561 28.2416097,60.6122991 24.8027197,64.4640585 C21.3638297,68.3158179 15.7946812,69.9647783 11.134147,69.2967145 C6.4736129,68.6286507 6.28303623,67.9348943 3.72554823,67.4855882 C1.16806022,67.036282 -1.38008622,70.8201559 2.32040346,72.6191356 C6.02089315,74.4181153 11.8795785,76.5652932 20.9257138,76.5652938 C29.9718492,76.5652944 28.6936944,77.7812355 35.4451198,81.4699738 Z" id="Path-38" fill="#52D2C3" sketch:type="MSShapeGroup" transform="translate(53.668995, 63.461690) scale(-1, 1) translate(-53.668995, -63.461690) "></path>
            <ellipse id="Oval-36-Copy-3" fill="#FFFFFF" sketch:type="MSShapeGroup" cx="76.5563037" cy="43.8438296" rx="6.44676392" ry="6.49088846"></ellipse>
            <ellipse id="Oval-36-Copy-2" fill="#000000" sketch:type="MSShapeGroup" cx="78.8177451" cy="46.1207494" rx="1.86014334" ry="1.87287499"></ellipse>
            <path d="M26.6061974,27.8781009 C28.7778784,37.5095069 43.2063345,48.6791993 43.2063345,48.6791993 C43.2063345,48.6791993 34.0414641,35.0425146 34.0414641,26.3063941 C34.0414641,17.5702736 39.9725332,8.14271405 39.9725332,8.14271405 C39.9725332,8.14271405 24.4345164,18.246695 26.6061974,27.8781009 Z" id="Path-41" fill="#FFFFFF" sketch:type="MSShapeGroup" transform="translate(34.802195, 28.410957) scale(-1, 1) translate(-34.802195, -28.410957) "></path>
        </g>
    </g>
</svg>