<?xml version="1.0" encoding="UTF-8" standalone="no"?>
<svg width="79px" height="114px" viewBox="0 0 79 114" version="1.1" xmlns="http://www.w3.org/2000/svg" xmlns:xlink="http://www.w3.org/1999/xlink" xmlns:sketch="http://www.bohemiancoding.com/sketch/ns">
    <!-- Generator: Sketch 3.3.2 (12043) - http://www.bohemiancoding.com/sketch -->
    <title>progress-turtle</title>
    <desc>Created with Sketch.</desc>
    <defs></defs>
    <g id="Page-1" stroke="none" stroke-width="1" fill="none" fill-rule="evenodd" sketch:type="MSPage">
        <g id="progress-turtle" sketch:type="MSLayerGroup" transform="translate(38.570742, 61.286469) rotate(-101.000000) translate(-38.570742, -61.286469) translate(-20.929258, 20.286469)">
            <g id="Shape_18_1_" transform="translate(54.543013, 33.744817)" fill="#389086" sketch:type="MSShapeGroup">
                <g id="Shape_18" transform="translate(0.340410, 0.000000)">
                    <path d="M14.4591784,0.739341796 L0.830280041,25.1219597 C0.830280041,25.1219597 0.962590149,28.6626607 4.5277643,30.4592248 C8.09293844,32.2557889 10.7270472,32.5789075 11.8823011,31.2695141 L20.6591718,2.76275498 L14.4591784,0.739341796 Z" id="Shape"></path>
                </g>
            </g>
            <g id="Shape_18_copy_1_" transform="translate(0.867943, 35.528326)" fill="#389086" sketch:type="MSShapeGroup">
                <g id="Shape_18_copy" transform="translate(0.480414, 0.000000)">
                    <path d="M37.3444993,0.106054704 L3.29560669,16.3301853 L0.990064694,27.9352726 L43.5560403,3.71191463 L37.3444993,0.106054704 Z" id="Shape"></path>
                </g>
            </g>
            <g id="Shape_3_1_" transform="translate(1.140004, 19.343936)" fill="#52D2C3" sketch:type="MSShapeGroup">
                <g id="Shape_3" transform="translate(1.000000, 0.000000)">
                    <path d="M96.0914227,22.9321453 C87.7117577,24.4257776 87.7363378,24.4310541 84.8771001,22.9321453 C82.0178624,21.4332364 75.7889555,7.16973964 75.7889555,7.16973964 C75.7889555,7.16973964 73.9800182,4.09415346 64.6100665,1.54884057 C55.2401149,-0.99647232 37.3424544,4.14718081 31.9205161,7.16973987 C26.551218,10.1922989 20.5170285,16.0925365 20.5170285,16.0925365 L4.89199796,20.4315578 C4.89199796,20.4315578 0.88689804,40.4691382 0.939538217,40.734275 L34.6404389,20.4315584 C34.6404389,20.4315584 38.8185985,25.6760257 46.7142829,25.6760257 C54.6099672,25.6760257 61.2195168,21.455104 61.2195168,21.455104 L47.6947479,40.0454627 C47.6947479,40.0454627 50.1705215,44.8347666 54.3025055,46.3856498 C59.2139855,48.2291061 61.2195168,47.0903884 61.2195168,47.0903884 L73.0557137,18.3442375 C73.0557137,18.3442375 72.953305,22.8642443 84.8771001,29.1250138 C90.1133428,31.8743825 93.9690534,34.6595697 93.8637731,34.1292962 C93.8111329,33.9702141 93.7584927,33.8641594 93.7584927,33.8641594 C93.7584927,33.8641594 93.8111329,33.9171868 93.8637731,34.1292962 C94.0743338,34.7656244 86.9329594,42.5854838 93.8637774,49.4934439 C101.037225,56.9898502 116.921385,53.1717367 115.446289,37.4301554 C114.498765,25.3399192 103.339539,21.6402057 96.0914227,22.9321453 Z" id="Shape"></path>
                </g>
            </g>
            <g id="Shape_1_1_" transform="translate(22.479681, 0.375610)" fill="#DECBAC" sketch:type="MSShapeGroup">
                <g id="Shape_1" transform="translate(0.000000, 1.137879)">
                    <path d="M0.631682134,31.94677 C0.631682134,31.94677 14.5813293,23.6214758 31.1103451,21.8185458 C47.5867208,20.0156159 55.9215683,24.796956 55.9215683,24.796956 C55.9215683,24.796956 58.7877964,-1.50326195 28.366028,0.6349581 C-2.05574043,2.77317815 0.631682134,31.94677 0.631682134,31.94677 Z" id="Shape"></path>
                </g>
            </g>
            <g id="Shape_2_1_" transform="translate(22.479681, 20.680667)" fill="#FFF1DB" sketch:type="MSShapeGroup">
                <g id="Shape_2" transform="translate(0.000000, 0.000000)">
                    <path d="M55.8034028,4.61337957 C55.8034028,4.61337957 47.1655994,-1.96201202 29.2152987,0.636328222 C13.8443668,2.81044965 0.473746169,11.8213679 0.473746169,11.8213679 L0.125292294,14.801893 C0.125292294,14.801893 13.1074043,6.62841898 30.1101817,4.61337961 C42.8491048,2.81044965 56.6080531,7.70329964 56.6080531,7.70329964 L55.8034028,4.61337957 Z" id="Shape"></path>
                </g>
            </g>
            <g id="Shape_4_1_" transform="translate(70.297168, 13.787111)" fill="#BFAE94" sketch:type="MSShapeGroup">
                <g id="Shape_4" transform="translate(1.137879, 0.000000)">
                    <path d="M3.13445729,0.94345141 C0.0286868002,-0.806451202 0.526401779,3.76494198 0.421121423,5.35576254 C0.315841067,6.99961045 5.34256322,8.50328563 5.34256322,8.50328563 C5.34256322,8.50328563 6.18758761,2.69335402 3.13445729,0.94345141 Z" id="Shape"></path>
                </g>
            </g>
            <g id="Shape_5_1_" transform="translate(59.854208, 13.256838)" fill="#BFAE94" sketch:type="MSShapeGroup">
                <g id="Shape_5">
                    <path d="M4.42177494,0.212109407 C2.26352765,8.04911693e-16 0.579041956,-0.106054704 0.421121423,1.21962909 C0.263200889,2.54531289 0.315841067,5.88603606 0.315841067,5.88603606 L10.2648347,6.04511811 C10.2648347,6.04511811 10.2648347,2.38623083 10.370115,1.37871115 C10.4753954,0.318164111 6.58002223,0.424218815 4.42177494,0.212109407 L4.42177494,0.212109407 Z" id="Shape"></path>
                </g>
            </g>
            <g id="Shape_6_1_" transform="translate(46.167761, 13.787111)" fill="#BFAE94" sketch:type="MSShapeGroup">
                <g id="Shape_6">
                    <path d="M11.7387597,0.371191463 C11.4755588,-0.424218815 2.8425696,0.530273519 1.26336427,0.84843763 C-0.263200889,1.16660174 1.00016338,4.2952155 1.15808391,5.51484459 C1.31600445,6.73447369 11.6334793,5.03759843 11.6334793,5.03759843 C11.6334793,5.03759843 12.0019606,1.16660174 11.7387597,0.371191463 L11.7387597,0.371191463 Z" id="Shape"></path>
                </g>
            </g>
            <g id="Shape_7_1_" transform="translate(35.639726, 15.377932)" fill="#BFAE94" sketch:type="MSShapeGroup">
                <g id="Shape_7">
                    <path d="M8.42242846,0.212109407 C8.42242846,0.212109407 2.78992943,0.371191463 1.10544373,2.70439494 C-0.579041956,5.03759843 1.00016338,7.37080191 1.00016338,7.37080191 L8.89619006,4.82548902 L8.42242846,0.212109407 L8.42242846,0.212109407 Z" id="Shape"></path>
                </g>
            </g>
            <g id="Shape_8_1_" transform="translate(26.164494, 18.559573)" fill="#BFAE94" sketch:type="MSShapeGroup">
                <g id="Shape_8">
                    <path d="M2.26352765,3.87099669 C-0.105280356,6.25722752 0.526401779,9.86308745 0.526401779,9.86308745 L7.68546597,5.6208993 L7.73810614,0.371191463 C7.73810614,0.371191463 4.57969547,1.48476585 2.26352765,3.87099669 L2.26352765,3.87099669 Z" id="Shape"></path>
                </g>
            </g>
            <g id="Shape_9_1_" transform="translate(65.559552, 6.363282)" fill="#BFAE94" sketch:type="MSShapeGroup">
                <g id="Shape_9" transform="translate(1.137879, 0.000000)">
                    <path d="M0.947523187,0.876698772 C-0.57904197,1.35394494 0.947523201,5.6208993 0.947523201,5.6208993 L7.0537838,6.31868375 C7.00114362,6.31868375 5.52545312,4.11259679 4.68321027,3.31718651 C4.68321027,3.31718651 2.47408835,0.399452606 0.947523187,0.876698772 Z" id="Shape"></path>
                </g>
            </g>
            <g id="Shape_10_1_" transform="translate(55.116592, 3.181641)" fill="#BFAE94" sketch:type="MSShapeGroup">
                <g id="Shape_10">
                    <path d="M9.58051237,3.23466846 C9.7384329,2.01503937 4.42177494,0.477246167 2.89520978,0.424218815 C1.31600445,0.371191463 -0.0526401779,7.31777456 0.210560711,8.27226689 C0.421121423,9.22675922 9.47523201,10.2873063 9.58051237,8.4843763 C9.68579273,6.68144633 9.47523201,4.45429756 9.58051237,3.23466846 L9.58051237,3.23466846 Z" id="Shape"></path>
                </g>
            </g>
            <g id="Shape_11_1_" transform="translate(45.641360, 3.711915)" fill="#BFAE94" sketch:type="MSShapeGroup">
                <g id="Shape_11">
                    <path d="M1.94768658,0.371191463 C1.05280356,0.742382926 0.473761601,8.69648571 0.473761601,8.69648571 L8.05394721,8.4843763 C8.05394721,8.4843763 9.00147041,2.38623083 9.10675077,1.37871115 C9.15939095,0.371191463 2.78992943,0.0530273519 1.94768658,0.371191463 L1.94768658,0.371191463 Z" id="Shape"></path>
                </g>
            </g>
            <g id="Shape_12_1_" transform="translate(37.218931, 5.833009)" fill="#BFAE94" sketch:type="MSShapeGroup">
                <g id="Shape_12">
                    <path d="M7.15906419,7.37080191 C6.8958633,5.726954 6.8958633,1.64384791 7.05378383,0.371191463 C7.15906419,-0.901464982 0.631682134,2.54531289 0.368481245,3.39375052 C0.105280356,4.24218815 1.52656516,9.12070452 1.52656516,9.12070452 C1.52656516,9.12070452 7.42226508,9.01464982 7.15906419,7.37080191 L7.15906419,7.37080191 Z" id="Shape"></path>
                </g>
            </g>
            <g id="Shape_13_1_" transform="translate(27.743699, 10.605470)" fill="#BFAE94" sketch:type="MSShapeGroup">
                <g id="Shape_13">
                    <path d="M7.15906419,0.106054704 C7.15906419,0.106054704 2.78992943,4.1891608 2.21088747,4.93154372 C1.63184551,5.67392665 -0.0526401779,9.96914215 0.421121423,9.65097804 C0.894883024,9.33281393 8.73826952,4.61337961 8.73826952,4.61337961 L7.15906419,0.106054704 L7.15906419,0.106054704 Z" id="Shape"></path>
                </g>
            </g>
            <g id="Ellipse_1_1_" transform="translate(96.868821, 54.147735)" fill="#F4FFFD" sketch:type="MSShapeGroup">
                <g id="Ellipse_1">
                    <path d="M7.62137578,13.483945 C11.0048943,13.1365262 13.4681958,10.0918297 13.1233136,6.68342503 C12.7784314,3.27502038 9.7559655,0.793601075 6.37244698,1.14101988 C2.98892847,1.48843869 0.525627005,4.53313518 0.87050917,7.94153983 C1.21539133,11.3499445 4.23785727,13.8313638 7.62137578,13.483945 L7.62137578,13.483945 Z" id="Oval"></path>
                </g>
            </g>
            <g id="Ellipse_1_copy_1_" transform="translate(98.870267, 61.567565)" fill="#1B1B25" sketch:type="MSShapeGroup">
                <g id="Ellipse_1_copy">
                    <path d="M2.37955408,3.80472678 C3.33387981,3.70673686 4.02865715,2.84797631 3.93138269,1.88663141 C3.83410824,0.925286508 2.98161784,0.225399012 2.02729211,0.323388932 C1.07296637,0.421378853 0.378189037,1.2801394 0.475463494,2.2414843 C0.57273795,3.2028292 1.42522834,3.9027167 2.37955408,3.80472678 L2.37955408,3.80472678 Z" id="Oval"></path>
                </g>
            </g>
            <g id="Shape_20_1_" transform="translate(101.966350, 15.377932)">
                <g id="Shape_20"></g>
            </g>
            <path d="M67.1435882,73.1912528 L67.654114,81.9358571" id="Path-18" stroke="#404D5B" stroke-width="2" stroke-linecap="round" sketch:type="MSShapeGroup"></path>
            <path d="M71.5040198,71.2512917 L76.937925,77.7891073" id="Path-19" stroke="#404D5B" stroke-width="2" stroke-linecap="round" sketch:type="MSShapeGroup"></path>
            <path d="M73.5179869,67.748464 L82.0584684,70.7078273" id="Path-20" stroke="#404D5B" stroke-width="2" stroke-linecap="round" sketch:type="MSShapeGroup"></path>
            <path d="M74.3601491,63.1881635 L81.9669085,61.4469664" id="Path-21" stroke="#404D5B" stroke-width="2" stroke-linecap="round" sketch:type="MSShapeGroup"></path>
        </g>
    </g>
</svg>