<?xml version="1.0" encoding="UTF-8" standalone="no"?>
<svg width="1445px" height="330px" viewBox="0 0 1445 330" version="1.1" xmlns="http://www.w3.org/2000/svg" xmlns:xlink="http://www.w3.org/1999/xlink" xmlns:sketch="http://www.bohemiancoding.com/sketch/ns">
    <!-- Generator: Sketch 3.3.2 (12043) - http://www.bohemiancoding.com/sketch -->
    <title>Group Copy 2</title>
    <desc>Created with Sketch.</desc>
    <defs></defs>
    <g id="Page-1" stroke="none" stroke-width="1" fill="none" fill-rule="evenodd" sketch:type="MSPage">
        <g id="Group-Copy-2" sketch:type="MSLayerGroup">
            <rect id="Rectangle-1" fill="#1B1A25" sketch:type="MSShapeGroup" x="0" y="0" width="1445" height="330"></rect>
            <circle id="Oval-5" fill="#FFFFFF" sketch:type="MSShapeGroup" cx="1136" cy="53" r="3"></circle>
            <circle id="Oval-5-Copy" fill="#FFFFFF" sketch:type="MSShapeGroup" cx="1106" cy="3" r="3"></circle>
            <circle id="Oval-5-Copy-2" fill="#FFFFFF" sketch:type="MSShapeGroup" cx="976" cy="73" r="3"></circle>
            <circle id="Oval-5-Copy-3" fill="#FFFFFF" sketch:type="MSShapeGroup" cx="326" cy="103" r="3"></circle>
            <circle id="Oval-5-Copy-4" fill="#FFFFFF" sketch:type="MSShapeGroup" cx="365" cy="273" r="3"></circle>
            <circle id="Oval-5-Copy-5" fill="#FFFFFF" sketch:type="MSShapeGroup" cx="405" cy="83" r="3"></circle>
            <circle id="Oval-5-Copy-9" fill="#FFFFFF" sketch:type="MSShapeGroup" cx="532" cy="300" r="1"></circle>
            <circle id="Oval-5-Copy-11" fill="#FFFFFF" sketch:type="MSShapeGroup" cx="133" cy="31" r="1"></circle>
            <circle id="Oval-5-Copy-13" fill="#FFFFFF" sketch:type="MSShapeGroup" cx="333" cy="21" r="1"></circle>
            <circle id="Oval-5-Copy-14" fill="#FFFFFF" sketch:type="MSShapeGroup" cx="393" cy="51" r="1"></circle>
            <circle id="Oval-5-Copy-15" fill="#FFFFFF" sketch:type="MSShapeGroup" cx="513" cy="81" r="1"></circle>
            <circle id="Oval-5-Copy-16" fill="#FFFFFF" sketch:type="MSShapeGroup" cx="663" cy="51" r="1"></circle>
            <circle id="Oval-5-Copy-17" fill="#FFFFFF" sketch:type="MSShapeGroup" cx="573" cy="101" r="1"></circle>
            <circle id="Oval-5-Copy-18" fill="#FFFFFF" sketch:type="MSShapeGroup" cx="793" cy="101" r="1"></circle>
            <circle id="Oval-5-Copy-19" fill="#FFFFFF" sketch:type="MSShapeGroup" cx="843" cy="51" r="1"></circle>
            <circle id="Oval-5-Copy-20" fill="#FFFFFF" sketch:type="MSShapeGroup" cx="783" cy="51" r="1"></circle>
            <circle id="Oval-5-Copy-7" fill="#FFFFFF" sketch:type="MSShapeGroup" cx="175" cy="148" r="3"></circle>
            <circle id="Oval-5-Copy-8" fill="#FFFFFF" sketch:type="MSShapeGroup" cx="280" cy="53" r="3"></circle>
            <circle id="Oval-5-Copy-10" fill="#FFFFFF" sketch:type="MSShapeGroup" cx="464" cy="154" r="3"></circle>
            <circle id="Oval-5-Copy-26" fill="#FFFFFF" sketch:type="MSShapeGroup" cx="1253" cy="101" r="1"></circle>
            <circle id="Oval-5-Copy-21" fill="#FFFFFF" sketch:type="MSShapeGroup" cx="1303" cy="51" r="1"></circle>
            <circle id="Oval-5-Copy-22" fill="#FFFFFF" sketch:type="MSShapeGroup" cx="1243" cy="51" r="1"></circle>
            <circle id="Oval-5-Copy-23" fill="#FFFFFF" sketch:type="MSShapeGroup" cx="744" cy="113" r="3"></circle>
            <path d="M1264,166 C1265.65685,166 1267,164.656854 1267,163 C1267,161.343146 1265.65685,160 1264,160 C1262.34315,160 1261,161.343146 1261,163 C1261,164.656854 1262.34315,166 1264,166 Z" id="Oval-5-Copy-24" fill="#FFFFFF" sketch:type="MSShapeGroup"></path>
            <circle id="Oval-5-Copy-25" fill="#FFFFFF" sketch:type="MSShapeGroup" cx="924" cy="154" r="3"></circle>
            <circle id="Oval-5-Copy-51" fill="#FFFFFF" sketch:type="MSShapeGroup" cx="1136" cy="53" r="3"></circle>
            <circle id="Oval-5-Copy-12" fill="#FFFFFF" sketch:type="MSShapeGroup" cx="1106" cy="3" r="3"></circle>
            <circle id="Oval-5-Copy-27" fill="#FFFFFF" sketch:type="MSShapeGroup" cx="1355" cy="264" r="3"></circle>
            <circle id="Oval-5-Copy-62" fill="#FFFFFF" sketch:type="MSShapeGroup" cx="134" cy="93" r="3"></circle>
            <circle id="Oval-5-Copy-52" fill="#FFFFFF" sketch:type="MSShapeGroup" cx="274" cy="284" r="3"></circle>
            <circle id="Oval-5-Copy-53" fill="#FFFFFF" sketch:type="MSShapeGroup" cx="1063" cy="231" r="1"></circle>
            <circle id="Oval-5-Copy-54" fill="#FFFFFF" sketch:type="MSShapeGroup" cx="1113" cy="181" r="1"></circle>
            <circle id="Oval-5-Copy-55" fill="#FFFFFF" sketch:type="MSShapeGroup" cx="1053" cy="181" r="1"></circle>
            <circle id="Oval-5-Copy-56" fill="#FFFFFF" sketch:type="MSShapeGroup" cx="554" cy="243" r="3"></circle>
            <path d="M1074,296 C1075.65685,296 1077,294.656854 1077,293 C1077,291.343146 1075.65685,290 1074,290 C1072.34315,290 1071,291.343146 1071,293 C1071,294.656854 1072.34315,296 1074,296 Z" id="Oval-5-Copy-57" fill="#FFFFFF" sketch:type="MSShapeGroup"></path>
            <circle id="Oval-5-Copy-58" fill="#FFFFFF" sketch:type="MSShapeGroup" cx="734" cy="284" r="3"></circle>
            <circle id="Oval-5-Copy-59" fill="#FFFFFF" sketch:type="MSShapeGroup" cx="946" cy="183" r="3"></circle>
            <circle id="Oval-5-Copy-60" fill="#FFFFFF" sketch:type="MSShapeGroup" cx="916" cy="133" r="3"></circle>
            <circle id="Oval-5-Copy-61" fill="#FFFFFF" sketch:type="MSShapeGroup" cx="786" cy="203" r="3"></circle>
            <circle id="Oval-5-Copy-28" fill="#FFFFFF" sketch:type="MSShapeGroup" cx="326" cy="103" r="3"></circle>
            <circle id="Oval-5-Copy-29" fill="#FFFFFF" sketch:type="MSShapeGroup" cx="365" cy="273" r="3"></circle>
            <circle id="Oval-5-Copy-30" fill="#FFFFFF" sketch:type="MSShapeGroup" cx="405" cy="83" r="3"></circle>
            <circle id="Oval-5-Copy-32" fill="#FFFFFF" sketch:type="MSShapeGroup" cx="665" cy="282" r="1"></circle>
            <circle id="Oval-5-Copy-33" fill="#FFFFFF" sketch:type="MSShapeGroup" cx="83" cy="23" r="1"></circle>
            <circle id="Oval-5-Copy-34" fill="#FFFFFF" sketch:type="MSShapeGroup" cx="333" cy="21" r="1"></circle>
            <circle id="Oval-5-Copy-35" fill="#FFFFFF" sketch:type="MSShapeGroup" cx="393" cy="51" r="1"></circle>
            <circle id="Oval-5-Copy-36" fill="#FFFFFF" sketch:type="MSShapeGroup" cx="513" cy="81" r="1"></circle>
            <circle id="Oval-5-Copy-37" fill="#FFFFFF" sketch:type="MSShapeGroup" cx="663" cy="51" r="1"></circle>
            <circle id="Oval-5-Copy-38" fill="#FFFFFF" sketch:type="MSShapeGroup" cx="573" cy="101" r="1"></circle>
            <circle id="Oval-5-Copy-39" fill="#FFFFFF" sketch:type="MSShapeGroup" cx="793" cy="101" r="1"></circle>
            <circle id="Oval-5-Copy-40" fill="#FFFFFF" sketch:type="MSShapeGroup" cx="843" cy="51" r="1"></circle>
            <circle id="Oval-5-Copy-41" fill="#FFFFFF" sketch:type="MSShapeGroup" cx="783" cy="51" r="1"></circle>
            <circle id="Oval-5-Copy-42" fill="#FFFFFF" sketch:type="MSShapeGroup" cx="175" cy="148" r="3"></circle>
            <circle id="Oval-5-Copy-43" fill="#FFFFFF" sketch:type="MSShapeGroup" cx="49" cy="296" r="3"></circle>
            <circle id="Oval-5-Copy-44" fill="#FFFFFF" sketch:type="MSShapeGroup" cx="464" cy="154" r="3"></circle>
            <circle id="Oval-5-Copy-45" fill="#FFFFFF" sketch:type="MSShapeGroup" cx="1253" cy="101" r="1"></circle>
            <circle id="Oval-5-Copy-46" fill="#FFFFFF" sketch:type="MSShapeGroup" cx="1303" cy="51" r="1"></circle>
            <circle id="Oval-5-Copy-47" fill="#FFFFFF" sketch:type="MSShapeGroup" cx="1243" cy="51" r="1"></circle>
            <circle id="Oval-5-Copy-48" fill="#FFFFFF" sketch:type="MSShapeGroup" cx="744" cy="113" r="3"></circle>
            <path d="M1264,166 C1265.65685,166 1267,164.656854 1267,163 C1267,161.343146 1265.65685,160 1264,160 C1262.34315,160 1261,161.343146 1261,163 C1261,164.656854 1262.34315,166 1264,166 Z" id="Oval-5-Copy-49" fill="#FFFFFF" sketch:type="MSShapeGroup"></path>
            <circle id="Oval-5-Copy-50" fill="#FFFFFF" sketch:type="MSShapeGroup" cx="924" cy="154" r="3"></circle>
            <circle id="Oval-5-Copy-71" fill="#FFFFFF" sketch:type="MSShapeGroup" cx="115" cy="258" r="3"></circle>
            <circle id="Oval-5-Copy-63" fill="#FFFFFF" sketch:type="MSShapeGroup" cx="264" cy="73" r="3"></circle>
            <circle id="Oval-5-Copy-64" fill="#FFFFFF" sketch:type="MSShapeGroup" cx="404" cy="264" r="3"></circle>
            <circle id="Oval-5-Copy-65" fill="#FFFFFF" sketch:type="MSShapeGroup" cx="1193" cy="211" r="1"></circle>
            <circle id="Oval-5-Copy-66" fill="#FFFFFF" sketch:type="MSShapeGroup" cx="1243" cy="161" r="1"></circle>
            <circle id="Oval-5-Copy-67" fill="#FFFFFF" sketch:type="MSShapeGroup" cx="1183" cy="161" r="1"></circle>
            <circle id="Oval-5-Copy-68" fill="#FFFFFF" sketch:type="MSShapeGroup" cx="684" cy="223" r="3"></circle>
            <path d="M1204,276 C1205.65685,276 1207,274.656854 1207,273 C1207,271.343146 1205.65685,270 1204,270 C1202.34315,270 1201,271.343146 1201,273 C1201,274.656854 1202.34315,276 1204,276 Z" id="Oval-5-Copy-69" fill="#FFFFFF" sketch:type="MSShapeGroup"></path>
            <circle id="Oval-5-Copy-70" fill="#FFFFFF" sketch:type="MSShapeGroup" cx="864" cy="264" r="3"></circle>
        </g>
    </g>
</svg>