<?xml version="1.0" encoding="UTF-8" standalone="no"?>
<svg width="53px" height="71px" viewBox="0 0 53 71" version="1.1" xmlns="http://www.w3.org/2000/svg" xmlns:xlink="http://www.w3.org/1999/xlink" xmlns:sketch="http://www.bohemiancoding.com/sketch/ns">
    <!-- Generator: Sketch 3.3.3 (12072) - http://www.bohemiancoding.com/sketch -->
    <title>user-weekly-award</title>
    <desc>Created with Sketch.</desc>
    <defs></defs>
    <g id="Page-1" stroke="none" stroke-width="1" fill="none" fill-rule="evenodd" sketch:type="MSPage">
        <g id="user-weekly-award" sketch:type="MSLayerGroup" transform="translate(-1.000000, 0.500000)">
            <path d="M24.7457824,12.0202128 L36.8660941,17.1763938 L27.7546941,71.1640625 L23.0151208,62.2728617 L15.6343824,66.0078815 L24.7457824,12.0202128 L24.7457824,12.0202128 Z" id="Rectangle-32" fill="#4DD2C3" sketch:type="MSShapeGroup" transform="translate(26.250238, 41.592138) rotate(-345.000000) translate(-26.250238, -41.592138) "></path>
            <path d="M31.885475,12.0202128 L19.7651632,17.1763938 L28.8765633,71.1640625 L33.6161366,62.2728617 L40.996875,66.0078815 L31.885475,12.0202128 L31.885475,12.0202128 Z" id="Rectangle-32-Copy" fill="#4DD2C3" sketch:type="MSShapeGroup" transform="translate(30.381019, 41.592138) rotate(-15.000000) translate(-30.381019, -41.592138) "></path>
            <ellipse id="Oval-23" fill="#4DD2C3" sketch:type="MSShapeGroup" cx="27.496875" cy="26.6577793" rx="26.5" ry="26.5"></ellipse>
            <polygon id="Star-1" fill="#FFFFFF" sketch:type="MSShapeGroup" points="28 34.5 19.1832212 39.1352549 20.8670761 29.3176275 13.7341523 22.3647451 23.5916106 20.9323725 28 12 32.4083894 20.9323725 42.2658477 22.3647451 35.1329239 29.3176275 36.8167788 39.1352549 "></polygon>
        </g>
    </g>
</svg>