<?xml version="1.0" encoding="UTF-8" standalone="no"?>
<svg width="133px" height="161px" viewBox="0 0 133 161" version="1.1" xmlns="http://www.w3.org/2000/svg" xmlns:xlink="http://www.w3.org/1999/xlink" xmlns:sketch="http://www.bohemiancoding.com/sketch/ns">
    <!-- Generator: Sketch 3.3.3 (12072) - http://www.bohemiancoding.com/sketch -->
    <title>user-award-50</title>
    <desc>Created with Sketch.</desc>
    <defs>
        <path id="path-1" d="M56.5,113 C87.7040884,113 113,87.7040884 113,56.5 C113,25.2959116 87.7040884,0 56.5,0 C25.2959116,0 0,25.2959116 0,56.5 C0,87.7040884 25.2959116,113 56.5,113 Z"></path>
    </defs>
    <g id="Page-1" stroke="none" stroke-width="1" fill="none" fill-rule="evenodd" sketch:type="MSPage">
        <g id="user-award-50" sketch:type="MSLayerGroup" transform="translate(0.000000, 0.500000)">
            <path d="M43.6325443,82.9305307 L70.2794208,82.9305307 L70.2794208,157.689823 L57.4793207,148.807531 L43.6325443,157.689823 L43.6325443,82.9305307 Z" id="Rectangle-32" fill="#1B1A25" sketch:type="MSShapeGroup" transform="translate(56.955983, 120.310177) rotate(-345.000000) translate(-56.955983, -120.310177) "></path>
            <path d="M65.1325443,82.9305307 L91.7794208,82.9305307 L91.7794208,157.689823 L78.9793207,148.807531 L65.1325443,157.689823 L65.1325443,82.9305307 Z" id="Rectangle-32-Copy" fill="#1B1A25" sketch:type="MSShapeGroup" transform="translate(78.455983, 120.310177) scale(-1, 1) rotate(-345.000000) translate(-78.455983, -120.310177) "></path>
            <circle id="Oval-23" fill="#1B1A25" sketch:type="MSShapeGroup" cx="66.5" cy="66.8101769" r="66.5"></circle>
            <g id="front-facing-turtle-copy-2" transform="translate(10.000000, 10.310177)">
                <mask id="mask-2" sketch:name="Mask" fill="white">
                    <use xlink:href="#path-1"></use>
                </mask>
                <use id="Mask" fill="#596A7E" sketch:type="MSShapeGroup" xlink:href="#path-1"></use>
                <path d="M-12.2439018,26.1089838 L49.2439018,-9.39101615 L89.2439018,59.8910162 L27.7560982,95.3910162 L-12.2439018,26.1089838 L-12.2439018,26.1089838 Z" id="Rectangle-64" fill="#FFFFFF" sketch:type="MSShapeGroup" mask="url(#mask-2)"></path>
                <text id="50" sketch:type="MSTextLayer" mask="url(#mask-2)" transform="translate(43.500000, 48.574219) rotate(-30.000000) translate(-43.500000, -48.574219) " font-family="Merriweather" font-size="36" font-weight="260" fill="#1B1A25">
                    <tspan x="22" y="60.0742188">50</tspan>
                </text>
                <text id="FIRST" sketch:type="MSTextLayer" mask="url(#mask-2)" transform="translate(31.380093, 29.189823) rotate(-30.000000) translate(-31.380093, -29.189823) " font-family="Montserrat" font-size="12" font-weight="bold" letter-spacing="0.646153867" fill="#4DD2C3">
                    <tspan x="11.8800931" y="33.6898231">FIRST</tspan>
                </text>
                <g id="frog" mask="url(#mask-2)" sketch:type="MSShapeGroup">
                    <g transform="translate(51.000000, 45.689823)">
                        <ellipse id="Oval-38" stroke="none" fill="#52D2C3" fill-rule="evenodd" cx="41.9914956" cy="28.1453335" rx="24.34191" ry="15.9743784"></ellipse>
                        <path d="M41.9914956,73.02573 C74.7299086,73.02573 68.3138575,65.305969 66.3334057,57.0513516 C64.23922,48.3226862 55.4351613,41.0769731 41.9914956,41.0769731 C28.54783,41.0769731 18.1458135,47.5569073 16.460273,57.0513516 C14.7747324,66.5457959 9.74262487,73.02573 41.9914956,73.02573 Z" id="Oval-38-Copy" stroke="none" fill="#52D2C3" fill-rule="evenodd"></path>
                        <ellipse id="Oval-39" stroke="none" fill="#52D2C3" fill-rule="evenodd" cx="30.5812253" cy="9.88890094" rx="9.88890094" ry="9.88890094"></ellipse>
                        <ellipse id="Oval-39-Copy" stroke="none" fill="#52D2C3" fill-rule="evenodd" cx="51.8803966" cy="9.88890094" rx="9.88890094" ry="9.88890094"></ellipse>
                        <ellipse id="Oval-39-Copy-2" stroke="none" fill="#FFFFFF" fill-rule="evenodd" cx="51.8803966" cy="9.88890094" rx="6.84616219" ry="6.84616219"></ellipse>
                        <ellipse id="Oval-39-Copy-4" stroke="none" fill="#000000" fill-rule="evenodd" cx="48.8376578" cy="9.88890094" rx="2.28205406" ry="2.28205406"></ellipse>
                        <ellipse id="Oval-39-Copy-3" stroke="none" fill="#FFFFFF" fill-rule="evenodd" cx="30.5812253" cy="9.88890094" rx="6.84616219" ry="6.84616219"></ellipse>
                        <path d="M27.5384866,12.170955 C28.7988302,12.170955 29.8205406,11.1492446 29.8205406,9.88890094 C29.8205406,8.62855729 28.7988302,7.60684688 27.5384866,7.60684688 C26.2781429,7.60684688 25.2564325,8.62855729 25.2564325,9.88890094 C25.2564325,11.1492446 26.2781429,12.170955 27.5384866,12.170955 Z" id="Oval-39-Copy-5" stroke="none" fill="#000000" fill-rule="evenodd"></path>
                        <path d="M27.298544,24.961452 C27.298544,24.961452 31.6264239,32.5534418 42.4981235,32.5534418 C53.3698231,32.5534418 57.269075,25.2259088 57.269075,25.2259088" id="Path-32" stroke="#000000" stroke-width="1" stroke-linecap="round" fill="none"></path>
                        <path d="M21.3322315,52.7011862 C21.3322315,52.7011862 17.1957009,46.5637086 11.8660155,50.2139897 C6.53633018,53.8642707 12.7827,67.2981952 12.7827,67.2981952 C12.7827,67.2981952 6.34733724,67.9511655 7.59459272,69.793449 C8.8418482,71.6357324 14.2049621,74.6414425 16.3525592,74.6414425 C18.5001563,74.6414425 20.4828393,69.7934487 20.4828393,69.7934487 L21.3322315,52.7011862 Z" id="Path-33" stroke="none" fill="#52D2C3" fill-rule="evenodd"></path>
                        <path d="M77.1887218,52.7011862 C77.1887218,52.7011862 73.0521912,46.5637086 67.7225059,50.2139897 C62.3928205,53.8642707 68.6391904,67.2981952 68.6391904,67.2981952 C68.6391904,67.2981952 62.2038276,67.9511655 63.4510831,69.793449 C64.6983386,71.6357324 70.0614524,74.6414425 72.2090495,74.6414425 C74.3566466,74.6414425 76.3393297,69.7934487 76.3393297,69.7934487 L77.1887218,52.7011862 Z" id="Path-33-Copy" stroke="none" fill="#52D2C3" fill-rule="evenodd" transform="translate(70.239694, 61.848141) scale(-1, 1) translate(-70.239694, -61.848141) "></path>
                        <path d="M20.6672521,22.2735386 C19.381887,22.076339 17.421351,22.5882235 17.421351,22.5882235 C17.421351,22.5882235 18.1779866,28.065983 18.3437209,33.1300747 C18.5094552,38.1941664 15.6442094,44.6367084 15.6442094,44.6367084 L9.93370677,46.7980177 C9.93370677,46.7980177 12.0461843,50.4948484 15.6442094,51.9994928 C19.2422345,53.5041372 21.7238218,52.7650473 21.7238218,52.7650473 L20.059917,45.8104212 C20.059917,45.8104212 23.5806098,39.3291017 23.5360965,34.0268165 C23.4915832,28.7245314 23.5360961,23.7339915 23.5360961,23.7339915 C23.5360961,23.7339915 21.9526172,22.4707382 20.6672521,22.2735386 Z" id="Path-35" stroke="none" fill="#58EDDB" fill-rule="evenodd" transform="translate(16.735111, 37.587446) rotate(124.000000) translate(-16.735111, -37.587446) "></path>
                        <path d="M51.045146,52.3262084 L49.9137761,71.2363543 L45.5182963,77.7044027 C45.5182963,77.7044027 49.3172626,80.0919423 53.4727998,80.0919423 C57.6283371,80.0919423 58.883764,78.9843438 58.883764,78.9843438 L54.9926835,70.483841 L55.2571403,51.0626101 L51.045146,52.3262084 Z" id="Path-35-Copy" stroke="none" fill="#58EDDB" fill-rule="evenodd"></path>
                    </g>
                </g>
            </g>
        </g>
    </g>
</svg>